<svg xmlns="http://www.w3.org/2000/svg" width="1920" height="1080" viewBox="0 0 1920 1080"><rect width="100%" height="100%" fill="#10B981"/><path fill="#FFFFFF" d="M491.185 463.84q2.08 0 3.69 1.6l10.01 10.87q-8.31 10.3-20.46 15.78-12.14 5.48-29.15 5.48-15.21 0-27.36-5.2-12.14-5.19-20.74-14.45-8.6-9.27-13.18-22.12-4.59-12.85-4.59-28.06 0-15.41 4.92-28.21 4.91-12.81 13.84-22.07t21.31-14.41 27.41-5.15q14.93 0 26.5 4.91 11.58 4.92 19.71 12.86l-8.51 11.81q-.75 1.13-1.94 1.98-1.18.85-3.26.85-1.41 0-2.93-.8-1.51-.8-3.3-1.98-1.8-1.18-4.16-2.6t-5.48-2.6-7.23-1.99q-4.11-.8-9.5-.8-9.16 0-16.77 3.26t-13.09 9.45-8.51 15.12q-3.02 8.93-3.02 20.37 0 11.53 3.26 20.5 3.26 8.98 8.84 15.12 5.57 6.15 13.13 9.41t16.26 3.26q5.19 0 9.4-.57 4.2-.57 7.75-1.8 3.54-1.23 6.71-3.16 3.16-1.94 6.28-4.77.95-.85 1.99-1.37t2.17-.52m70.4-66.25q10.78 0 19.61 3.5 8.84 3.49 15.12 9.92 6.29 6.43 9.69 15.69t3.4 20.69q0 11.53-3.4 20.79t-9.69 15.78q-6.28 6.52-15.12 10.02-8.83 3.5-19.61 3.5-10.87 0-19.75-3.5t-15.17-10.02q-6.28-6.52-9.73-15.78t-3.45-20.79q0-11.43 3.45-20.69t9.73-15.69q6.29-6.43 15.17-9.92 8.88-3.5 19.75-3.5m0 81.93q12.1 0 17.91-8.12 5.81-8.13 5.81-23.82t-5.81-23.91-17.91-8.22q-12.28 0-18.19 8.27t-5.91 23.86 5.91 23.77q5.91 8.17 18.19 8.17m85.9-76.16 1.61 7.65q2.93-2.93 6.19-5.43 3.26-2.51 6.9-4.26 3.64-1.74 7.79-2.74 4.16-.99 9.08-.99 7.93 0 14.08 2.69 6.14 2.7 10.25 7.56 4.11 4.87 6.24 11.63 2.12 6.75 2.12 14.88v61.71h-23.34v-61.71q0-8.88-4.06-13.75-4.07-4.87-12.38-4.87-6.05 0-11.34 2.75-5.29 2.74-10.02 7.46v70.12h-23.34V399.1h14.27q4.54 0 5.95 4.26m109.72-47.73v53.87q5.67-5.29 12.47-8.6 6.81-3.31 15.97-3.31 7.94 0 14.08 2.69 6.14 2.7 10.26 7.56 4.11 4.87 6.23 11.63 2.13 6.75 2.13 14.88v61.71h-23.34v-61.71q0-8.88-4.07-13.75-4.06-4.87-12.38-4.87-6.04 0-11.34 2.75-5.29 2.74-10.01 7.46v70.12h-23.34V355.63zm101.68 80.8h44.04q0-4.54-1.28-8.55-1.28-4.02-3.83-7.04-2.55-3.03-6.47-4.77-3.92-1.75-9.12-1.75-10.11 0-15.92 5.76-5.81 5.77-7.42 16.35m59.53 14.08h-60q.56 7.47 2.64 12.9t5.48 8.98q3.41 3.54 8.08 5.29 4.68 1.75 10.35 1.75t9.78-1.33q4.11-1.32 7.18-2.92 3.08-1.61 5.39-2.93 2.32-1.33 4.49-1.33 2.93 0 4.35 2.18l6.71 8.5q-3.88 4.54-8.7 7.61t-10.06 4.91q-5.25 1.85-10.68 2.6-5.43.76-10.54.76-10.11 0-18.8-3.36-8.7-3.35-15.12-9.92-6.43-6.57-10.11-16.25-3.69-9.69-3.69-22.45 0-9.92 3.21-18.66 3.22-8.74 9.22-15.22 6-6.47 14.64-10.25 8.65-3.78 19.52-3.78 9.16 0 16.91 2.93t13.33 8.55q5.57 5.63 8.74 13.8t3.17 18.66q0 5.3-1.14 7.14-1.13 1.84-4.35 1.84m92.8 22.59 6.71 8.5q-6.42 7.56-14.5 11.11-8.08 3.54-16.68 4.39l-1.23 4.72q8.88 2.08 12.43 5.63 3.54 3.54 3.54 8.45 0 3.22-1.65 5.77-1.66 2.55-4.73 4.35-3.07 1.79-7.28 2.74-4.2.94-9.3.94-3.88 0-7.28-.52t-6.62-1.56l2.08-7.27q.57-2.18 2.74-2.18 1.33 0 2.93.71 1.61.71 4.63.71 3.12 0 4.68-1.18t1.56-2.88q0-2.74-3.4-3.92-3.4-1.19-10.49-2.23l4.16-12.37q-7.94-1.14-14.74-4.97-6.81-3.82-11.82-10.11-5.01-6.28-7.89-14.98-2.88-8.69-2.88-19.56 0-10.68 3.07-19.8 3.07-9.11 9.03-15.78 5.95-6.66 14.74-10.44t20.22-3.78q10.87 0 19.04 3.5 8.18 3.49 14.7 10.01l-6.14 8.51q-1.04 1.32-2.04 2.08-.99.75-2.88.75-1.79 0-3.5-1.08-1.7-1.09-4.06-2.46t-5.62-2.46q-3.26-1.08-8.08-1.08-6.14 0-10.77 2.22t-7.71 6.38q-3.07 4.15-4.58 10.06t-1.51 13.37q0 7.75 1.65 13.8 1.66 6.05 4.77 10.16 3.12 4.11 7.56 6.24 4.45 2.12 10.02 2.12 5.58 0 9.03-1.37t5.81-3.02q2.36-1.66 4.11-3.03t3.92-1.37q2.84 0 4.25 2.18m72.67-2.08v-16.35q-10.11.47-17.01 1.75-6.89 1.27-11.05 3.26-4.16 1.98-5.96 4.63-1.79 2.64-1.79 5.76 0 6.15 3.64 8.79 3.63 2.65 9.49 2.65 7.19 0 12.43-2.6 5.25-2.6 10.25-7.89m-49.33-50.94-4.15-7.46q16.72-15.31 40.25-15.31 8.51 0 15.22 2.79 6.71 2.78 11.34 7.74 4.63 4.97 7.04 11.86 2.41 6.9 2.41 15.12v61.24h-10.59q-3.3 0-5.1-.99-1.79-.99-2.83-4.02l-2.08-6.99q-3.69 3.31-7.18 5.81-3.5 2.5-7.28 4.21-3.78 1.7-8.08 2.59-4.3.9-9.5.9-6.14 0-11.34-1.65-5.2-1.66-8.98-4.96-3.78-3.31-5.85-8.22-2.08-4.92-2.08-11.44 0-3.68 1.22-7.32 1.23-3.64 4.02-6.95t7.23-6.24 10.91-5.1q6.48-2.17 15.08-3.54t19.65-1.66v-5.67q0-9.73-4.15-14.41-4.16-4.68-12.01-4.68-5.67 0-9.4 1.33-3.73 1.32-6.57 2.97-2.83 1.66-5.15 2.98-2.31 1.32-5.15 1.32-2.45 0-4.15-1.27-1.71-1.28-2.75-2.98m204.41-10.49-5.29 8.41q-.95 1.51-1.99 2.13-1.04.61-2.64.61-1.71 0-3.64-.94-1.94-.95-4.49-2.13t-5.81-2.12q-3.26-.95-7.7-.95-6.9 0-10.83 2.93-3.92 2.93-3.92 7.65 0 3.12 2.03 5.25 2.04 2.13 5.39 3.73 3.36 1.61 7.61 2.88 4.25 1.28 8.65 2.79 4.39 1.51 8.64 3.45t7.61 4.92q3.35 2.97 5.39 7.13 2.03 4.16 2.03 10.02 0 6.99-2.51 12.9-2.5 5.9-7.41 10.2-4.92 4.3-12.15 6.71t-16.68 2.41q-5.01 0-9.78-.9-4.77-.89-9.16-2.5-4.4-1.61-8.13-3.78t-6.57-4.72l5.39-8.89q1.04-1.6 2.45-2.45 1.42-.86 3.6-.86 2.17 0 4.11 1.23 1.93 1.23 4.48 2.65 2.56 1.42 6.01 2.64 3.44 1.23 8.74 1.23 4.15 0 7.13-.99t4.92-2.6q1.93-1.6 2.83-3.73t.9-4.39q0-3.41-2.03-5.58-2.04-2.17-5.39-3.78t-7.65-2.88q-4.3-1.28-8.79-2.79t-8.79-3.54q-4.3-2.04-7.66-5.15-3.35-3.12-5.38-7.66-2.03-4.53-2.03-10.96 0-5.95 2.36-11.34t6.94-9.4q4.59-4.02 11.44-6.43t15.83-2.41q10.01 0 18.24 3.31 8.22 3.31 13.7 8.69m37.04 26.84h44.04q0-4.54-1.28-8.55-1.27-4.02-3.82-7.04-2.56-3.03-6.48-4.77-3.92-1.75-9.12-1.75-10.11 0-15.92 5.76-5.81 5.77-7.42 16.35m59.54 14.08h-60.01q.57 7.47 2.65 12.9 2.07 5.43 5.48 8.98 3.4 3.54 8.08 5.29 4.67 1.75 10.34 1.75t9.78-1.33q4.12-1.32 7.19-2.92 3.07-1.61 5.38-2.93 2.32-1.33 4.49-1.33 2.93 0 4.35 2.18l6.71 8.5q-3.88 4.54-8.7 7.61-4.81 3.07-10.06 4.91-5.24 1.85-10.68 2.6-5.43.76-10.53.76-10.12 0-18.81-3.36-8.69-3.35-15.12-9.92t-10.11-16.25q-3.69-9.69-3.69-22.45 0-9.92 3.22-18.66 3.21-8.74 9.21-15.22 6-6.47 14.65-10.25 8.64-3.78 19.51-3.78 9.17 0 16.92 2.93t13.32 8.55q5.58 5.63 8.74 13.8 3.17 8.17 3.17 18.66 0 5.3-1.14 7.14-1.13 1.84-4.34 1.84m83.16-51.41h23.34v96.96h-14.27q-4.63 0-5.86-4.25l-1.61-7.75q-5.95 6.05-13.13 9.78t-16.92 3.73q-7.94 0-14.03-2.69-6.1-2.69-10.25-7.61-4.16-4.91-6.29-11.67-2.12-6.76-2.12-14.88V399.1h23.34v61.62q0 8.88 4.11 13.75 4.11 4.86 12.33 4.86 6.05 0 11.34-2.69t10.02-7.42zm110.85 10.49-5.3 8.41q-.94 1.51-1.98 2.13-1.04.61-2.65.61-1.7 0-3.64-.94-1.93-.95-4.48-2.13-2.56-1.18-5.82-2.12-3.26-.95-7.7-.95-6.9 0-10.82 2.93t-3.92 7.65q0 3.12 2.03 5.25t5.39 3.73q3.35 1.61 7.61 2.88 4.25 1.28 8.64 2.79 4.4 1.51 8.65 3.45t7.61 4.92q3.35 2.97 5.38 7.13 2.04 4.16 2.04 10.02 0 6.99-2.51 12.9-2.5 5.9-7.42 10.2-4.91 4.3-12.14 6.71t-16.68 2.41q-5.01 0-9.78-.9-4.77-.89-9.17-2.5-4.39-1.61-8.12-3.78-3.74-2.17-6.57-4.72l5.38-8.89q1.04-1.6 2.46-2.45 1.42-.86 3.59-.86 2.18 0 4.11 1.23 1.94 1.23 4.49 2.65t6 2.64q3.45 1.23 8.74 1.23 4.16 0 7.14-.99t4.91-2.6q1.94-1.6 2.84-3.73t.9-4.39q0-3.41-2.04-5.58-2.03-2.17-5.38-3.78-3.36-1.61-7.66-2.88-4.3-1.28-8.79-2.79-4.48-1.51-8.78-3.54-4.3-2.04-7.66-5.15-3.35-3.12-5.39-7.66-2.03-4.53-2.03-10.96 0-5.95 2.37-11.34 2.36-5.39 6.94-9.4 4.58-4.02 11.44-6.43 6.85-2.41 15.82-2.41 10.02 0 18.24 3.31t13.71 8.69m-969.29 293.43h25.7q7.09 0 11.91-1.71 4.82-1.7 7.7-4.53 2.88-2.84 4.16-6.62t1.28-8.03q0-4.44-1.42-7.98-1.42-3.55-4.44-6.05-3.03-2.51-7.8-3.83t-11.48-1.32h-25.61zm21.64-97.15h-21.64v39.5h20.22q13.04 0 19.71-4.72 6.66-4.73 6.66-15.03 0-10.68-6.05-15.21-6.05-4.54-18.9-4.54m-47.06-19.66h47.06q13.42 0 22.96 2.55 9.55 2.56 15.64 7.28 6.1 4.73 8.93 11.44 2.84 6.71 2.84 15.12 0 4.82-1.42 9.21t-4.39 8.22q-2.98 3.83-7.56 6.95-4.59 3.12-10.92 5.29 28.16 6.33 28.16 30.43 0 8.69-3.3 16.06-3.31 7.37-9.64 12.71-6.34 5.34-15.6 8.37-9.26 3.02-21.16 3.02h-51.6zm139.2 77.02h44.03q0-4.54-1.27-8.55-1.28-4.02-3.83-7.04-2.55-3.03-6.47-4.77-3.92-1.75-9.12-1.75-10.11 0-15.92 5.76-5.82 5.77-7.42 16.35m59.53 14.08h-60.01q.57 7.47 2.65 12.9t5.48 8.98q3.4 3.54 8.08 5.29t10.35 1.75 9.78-1.33q4.11-1.32 7.18-2.92 3.07-1.61 5.39-2.93 2.31-1.33 4.49-1.33 2.93 0 4.34 2.18l6.71 8.5q-3.87 4.54-8.69 7.61t-10.06 4.91q-5.25 1.85-10.68 2.6-5.44.76-10.54.76-10.11 0-18.81-3.36-8.69-3.35-15.12-9.92-6.42-6.57-10.11-16.25-3.68-9.69-3.68-22.45 0-9.92 3.21-18.66t9.21-15.22q6.01-6.47 14.65-10.25 8.65-3.78 19.52-3.78 9.16 0 16.91 2.93t13.33 8.55q5.57 5.63 8.74 13.8 3.16 8.17 3.16 18.66 0 5.3-1.13 7.14t-4.35 1.84m43.19-47.15 1.61 7.65q2.92-2.93 6.19-5.43 3.26-2.51 6.89-4.26 3.64-1.74 7.8-2.74 4.16-.99 9.07-.99 7.94 0 14.08 2.69 6.14 2.7 10.26 7.56 4.11 4.87 6.23 11.63 2.13 6.75 2.13 14.88v61.71h-23.34v-61.71q0-8.88-4.07-13.75-4.06-4.86-12.38-4.86-6.04 0-11.34 2.74-5.29 2.74-10.01 7.46v70.12h-23.34V625.9h14.27q4.53 0 5.95 4.26m104.8 33.07h44.04q0-4.54-1.28-8.55-1.28-4.02-3.83-7.04-2.55-3.03-6.47-4.77-3.92-1.75-9.12-1.75-10.11 0-15.92 5.76-5.81 5.77-7.42 16.35m59.53 14.08h-60q.56 7.47 2.64 12.9t5.48 8.98q3.41 3.54 8.08 5.29 4.68 1.75 10.35 1.75t9.78-1.33q4.11-1.32 7.18-2.92 3.08-1.61 5.39-2.93 2.32-1.33 4.49-1.33 2.93 0 4.35 2.18l6.71 8.5q-3.88 4.54-8.7 7.61t-10.06 4.91q-5.25 1.85-10.68 2.6-5.43.76-10.54.76-10.11 0-18.8-3.36-8.7-3.35-15.12-9.92-6.43-6.57-10.11-16.25-3.69-9.69-3.69-22.45 0-9.92 3.21-18.66 3.22-8.74 9.22-15.22 6-6.47 14.64-10.25 8.65-3.78 19.52-3.78 9.16 0 16.91 2.93t13.33 8.55q5.57 5.63 8.74 13.8t3.17 18.66q0 5.3-1.14 7.14-1.13 1.84-4.35 1.84m53.11 45.55h-23.34v-79.38l-8.41-1.32q-2.74-.57-4.39-1.94-1.66-1.37-1.66-3.92v-9.55h14.46v-7.18q0-8.31 2.51-14.93 2.5-6.61 7.18-11.24 4.68-4.64 11.39-7.09 6.7-2.46 15.12-2.46 6.7 0 12.47 1.8l-.47 11.71q-.1 1.33-.76 2.13t-1.75 1.23q-1.08.42-2.5.57-1.42.14-3.03.14-4.15 0-7.41.9-3.26.89-5.53 3.11t-3.45 5.86-1.18 9.03v6.42h25.23v16.64h-24.48zm38.46-96.96h23.35v96.96h-23.35zm22.4-41.2h22.68l-23.34 24.67q-1.8 1.89-3.45 2.59-1.65.71-4.3.71h-13.99l13.42-22.96q1.42-2.46 3.31-3.73 1.89-1.28 5.67-1.28m100.45 53.2-6.14 8.51q-1.04 1.32-2.03 2.08-.99.75-2.88.75-1.8 0-3.5-1.08-1.7-1.09-4.06-2.46t-5.62-2.46q-3.26-1.08-8.08-1.08-6.15 0-10.78 2.22t-7.7 6.38q-3.07 4.15-4.58 10.06t-1.51 13.37q0 7.75 1.65 13.8t4.77 10.16 7.56 6.24q4.44 2.12 10.02 2.12 5.57 0 9.02-1.37t5.82-3.02q2.36-1.66 4.11-3.03 1.74-1.37 3.92-1.37 2.83 0 4.25 2.18l6.71 8.5q-3.87 4.54-8.41 7.61t-9.4 4.91q-4.87 1.85-10.02 2.6-5.15.76-10.25.76-8.98 0-16.92-3.36-7.94-3.35-13.89-9.78-5.95-6.42-9.4-15.73t-3.45-21.22q0-10.68 3.07-19.8 3.07-9.11 9.02-15.78 5.96-6.66 14.75-10.44 8.78-3.78 20.22-3.78 10.87 0 19.04 3.5 8.17 3.49 14.69 10.01m16.26-12h23.43v96.96h-23.43zm26.65-28.25q0 3.02-1.23 5.67-1.23 2.64-3.26 4.63-2.03 1.98-4.77 3.16-2.74 1.19-5.86 1.19-3.03 0-5.72-1.19-2.69-1.18-4.68-3.16-1.98-1.99-3.16-4.63-1.18-2.65-1.18-5.67 0-3.12 1.18-5.86t3.16-4.73q1.99-1.98 4.68-3.16t5.72-1.18q3.12 0 5.86 1.18t4.77 3.16q2.03 1.99 3.26 4.73t1.23 5.86m63.5 26.74q10.77 0 19.61 3.5 8.84 3.49 15.12 9.92t9.69 15.69q3.4 9.26 3.4 20.69 0 11.53-3.4 20.79-3.41 9.26-9.69 15.78t-15.12 10.02-19.61 3.5q-10.87 0-19.75-3.5t-15.17-10.02q-6.28-6.52-9.73-15.78t-3.45-20.79q0-11.43 3.45-20.69t9.73-15.69q6.29-6.43 15.17-9.92 8.88-3.5 19.75-3.5m0 81.93q12.1 0 17.91-8.12 5.81-8.13 5.81-23.82t-5.81-23.91-17.91-8.22q-12.28 0-18.19 8.27t-5.91 23.86 5.91 23.77q5.91 8.17 18.19 8.17m130.13-69.93-5.29 8.41q-.95 1.51-1.99 2.13-1.04.61-2.64.61-1.71 0-3.64-.94-1.94-.95-4.49-2.13t-5.81-2.12q-3.26-.95-7.7-.95-6.9 0-10.82 2.93-3.93 2.93-3.93 7.66 0 3.11 2.04 5.24 2.03 2.13 5.38 3.73 3.36 1.61 7.61 2.88 4.25 1.28 8.65 2.79 4.39 1.51 8.64 3.45t7.61 4.92q3.35 2.97 5.39 7.13 2.03 4.16 2.03 10.02 0 6.99-2.51 12.9-2.5 5.9-7.41 10.2-4.92 4.3-12.15 6.71t-16.68 2.41q-5.01 0-9.78-.9-4.77-.89-9.16-2.5-4.4-1.61-8.13-3.78t-6.57-4.72l5.39-8.89q1.04-1.6 2.45-2.46 1.42-.85 3.6-.85 2.17 0 4.11 1.23 1.93 1.23 4.48 2.65 2.56 1.42 6.01 2.65 3.44 1.22 8.74 1.22 4.15 0 7.13-.99t4.92-2.6q1.93-1.6 2.83-3.73t.9-4.39q0-3.41-2.03-5.58-2.04-2.17-5.39-3.78t-7.65-2.88q-4.3-1.28-8.79-2.79t-8.79-3.54q-4.3-2.04-7.66-5.15-3.35-3.12-5.38-7.66-2.03-4.53-2.03-10.96 0-5.95 2.36-11.34t6.94-9.4q4.59-4.02 11.44-6.43t15.83-2.41q10.01 0 18.24 3.31 8.22 3.31 13.7 8.69"/></svg>