<svg xmlns="http://www.w3.org/2000/svg" width="1920" height="1080" viewBox="0 0 1920 1080"><rect width="100%" height="100%" fill="#003366"/><path fill="#FFFFFF" d="M703.755 443.16h14.47q5.33 0 9.29-1.33t6.59-3.82q2.62-2.48 3.92-6.04 1.3-3.57 1.3-7.96 0-4.18-1.3-7.56t-3.89-5.76-6.55-3.64-9.36-1.26h-14.47zm-19.37-52.34h33.84q10.44 0 18.07 2.45 7.63 2.44 12.6 6.84 4.97 4.39 7.38 10.51t2.41 13.39q0 7.56-2.52 13.86t-7.56 10.84q-5.04 4.53-12.63 7.05-7.6 2.52-17.75 2.52h-14.47v36.65h-19.37zm125.35 85.03v-12.46q-7.7.36-12.96 1.34-5.25.97-8.42 2.48t-4.54 3.53q-1.37 2.01-1.37 4.39 0 4.68 2.78 6.7 2.77 2.01 7.23 2.01 5.47 0 9.47-1.98t7.81-6.01m-37.58-38.81-3.17-5.69q12.74-11.66 30.67-11.66 6.48 0 11.59 2.12 5.12 2.13 8.64 5.91 3.53 3.78 5.37 9.03 1.83 5.26 1.83 11.52v46.66h-8.06q-2.52 0-3.89-.76-1.37-.75-2.16-3.06l-1.58-5.32q-2.81 2.52-5.47 4.42-2.67 1.91-5.55 3.21-2.88 1.29-6.15 1.98-3.28.68-7.24.68-4.68 0-8.64-1.26t-6.84-3.78-4.46-6.26q-1.59-3.75-1.59-8.71 0-2.81.94-5.58.93-2.78 3.06-5.3 2.12-2.52 5.51-4.75 3.38-2.23 8.31-3.89 4.93-1.65 11.49-2.7 6.55-1.04 14.97-1.26v-4.32q0-7.41-3.17-10.98-3.16-3.56-9.14-3.56-4.32 0-7.16 1.01-2.85 1.01-5.01 2.27t-3.92 2.26q-1.77 1.01-3.93 1.01-1.87 0-3.16-.97-1.3-.97-2.09-2.27m87.33-11.52 1.08 8.35q3.46-6.62 8.21-10.4t11.23-3.78q5.12 0 8.21 2.23l-1.15 13.32q-.36 1.3-1.04 1.84-.69.54-1.84.54-1.08 0-3.2-.36-2.13-.36-4.14-.36-2.96 0-5.26.86-2.3.87-4.14 2.49t-3.24 3.92-2.63 5.26v45.5h-17.78v-73.87h10.44q2.73 0 3.81.97t1.44 3.49m62.64 70.56q-9.64 0-14.79-5.43-5.15-5.44-5.15-15.02v-41.25h-7.56q-1.44 0-2.45-.94-1.01-.93-1.01-2.81v-7.05l11.88-1.95 3.75-20.16q.36-1.44 1.37-2.23 1-.79 2.59-.79h9.21v23.26h19.73v12.67h-19.73v40.03q0 3.46 1.7 5.4 1.69 1.94 4.64 1.94 1.66 0 2.77-.39 1.12-.4 1.95-.83.82-.43 1.47-.83.65-.39 1.3-.39.79 0 1.29.39.51.4 1.08 1.19l5.33 8.64q-3.89 3.24-8.93 4.9-5.04 1.65-10.44 1.65m29.52-75.02h17.86v73.87h-17.86zm20.31-21.53q0 2.3-.94 4.32-.93 2.02-2.48 3.53t-3.64 2.41-4.46.9q-2.31 0-4.36-.9t-3.56-2.41-2.41-3.53-.9-4.32q0-2.38.9-4.46.9-2.09 2.41-3.6 1.51-1.52 3.56-2.42t4.36-.9q2.37 0 4.46.9t3.64 2.42q1.55 1.51 2.48 3.6.94 2.08.94 4.46m73.29 30.67-4.68 6.48q-.79 1.01-1.54 1.59-.76.57-2.2.57-1.37 0-2.66-.83-1.3-.82-3.1-1.87-1.8-1.04-4.28-1.87-2.49-.83-6.16-.83-4.68 0-8.21 1.69-3.53 1.7-5.87 4.86-2.34 3.17-3.49 7.67t-1.15 10.19q0 5.9 1.26 10.51t3.64 7.74q2.37 3.13 5.76 4.75 3.38 1.62 7.63 1.62t6.87-1.04q2.63-1.04 4.43-2.3t3.13-2.31q1.34-1.04 2.99-1.04 2.16 0 3.24 1.65l5.11 6.48q-2.95 3.46-6.4 5.8-3.46 2.34-7.17 3.74-3.71 1.41-7.63 1.98-3.92.58-7.81.58-6.84 0-12.89-2.56-6.05-2.55-10.58-7.45-4.54-4.89-7.17-11.99-2.63-7.09-2.63-16.16 0-8.14 2.34-15.08 2.34-6.95 6.88-12.03 4.54-5.07 11.23-7.95 6.7-2.88 15.41-2.88 8.28 0 14.51 2.66t11.19 7.63m12.39-9.14h17.85v73.87h-17.85zm20.3-21.53q0 2.3-.93 4.32-.94 2.02-2.49 3.53t-3.63 2.41q-2.09.9-4.47.9-2.3 0-4.35-.9-2.06-.9-3.57-2.41t-2.41-3.53-.9-4.32q0-2.38.9-4.46.9-2.09 2.41-3.6 1.51-1.52 3.57-2.42 2.05-.9 4.35-.9 2.38 0 4.47.9 2.08.9 3.63 2.42 1.55 1.51 2.49 3.6.93 2.08.93 4.46m33.48 43.13v33.12q3.03 3.67 6.59 5.18t7.74 1.51q4.03 0 7.27-1.51t5.51-4.61q2.27-3.09 3.49-7.81 1.23-4.71 1.23-11.12 0-6.48-1.05-10.98-1.04-4.5-2.99-7.31-1.94-2.81-4.71-4.1-2.77-1.3-6.3-1.3-5.55 0-9.43 2.34-3.89 2.34-7.35 6.59m-2.37-18.36 1.44 6.84q4.53-5.11 10.29-8.28t13.54-3.17q6.05 0 11.05 2.52t8.64 7.31 5.62 11.81 1.98 16.09q0 8.28-2.24 15.33-2.23 7.06-6.37 12.24-4.14 5.19-10.01 8.1-5.86 2.92-13.14 2.92-6.19 0-10.58-1.91t-7.85-5.29v30.24h-17.78v-97.99h10.87q3.46 0 4.54 3.24m80.42 25.2h33.55q0-3.46-.97-6.52t-2.92-5.36q-1.94-2.31-4.93-3.64t-6.95-1.33q-7.7 0-12.13 4.39t-5.65 12.46m45.36 10.73h-45.72q.43 5.68 2.02 9.82 1.58 4.14 4.17 6.84t6.16 4.04q3.56 1.33 7.88 1.33t7.45-1.01q3.14-1.01 5.48-2.23 2.34-1.23 4.1-2.23 1.76-1.01 3.42-1.01 2.23 0 3.31 1.65l5.11 6.48q-2.95 3.46-6.62 5.8t-7.67 3.74q-3.99 1.41-8.13 1.98-4.14.58-8.03.58-7.71 0-14.33-2.56-6.62-2.55-11.52-7.56-4.9-5-7.7-12.38-2.81-7.38-2.81-17.1 0-7.56 2.45-14.22 2.44-6.66 7.02-11.59 4.57-4.93 11.16-7.81 6.58-2.88 14.86-2.88 6.99 0 12.89 2.23 5.91 2.23 10.15 6.51 4.25 4.29 6.66 10.52 2.42 6.22 2.42 14.22 0 4.03-.87 5.43-.86 1.41-3.31 1.41m-823.25 155.73h14.47q5.33 0 9.29-1.33t6.59-3.82q2.63-2.48 3.92-6.04 1.3-3.57 1.3-7.96 0-4.18-1.3-7.56-1.29-3.38-3.88-5.76-2.6-2.38-6.56-3.64t-9.36-1.26h-14.47zm-19.37-52.34h33.84q10.44 0 18.08 2.45 7.63 2.44 12.6 6.84 4.96 4.39 7.38 10.51 2.41 6.12 2.41 13.39 0 7.56-2.52 13.86t-7.56 10.84q-5.04 4.53-12.64 7.05-7.59 2.52-17.75 2.52h-14.47v36.65h-19.37zm100.37 58.68h33.55q0-3.46-.97-6.52t-2.91-5.36q-1.95-2.31-4.94-3.64-2.98-1.33-6.94-1.33-7.71 0-12.14 4.39-4.42 4.39-5.65 12.46m45.36 10.73h-45.72q.43 5.68 2.02 9.82 1.58 4.14 4.17 6.84 2.6 2.7 6.16 4.04 3.56 1.33 7.88 1.33t7.46-1.01q3.13-1.01 5.47-2.23 2.34-1.23 4.1-2.23 1.77-1.01 3.42-1.01 2.23 0 3.31 1.65l5.12 6.48q-2.96 3.46-6.63 5.8t-7.67 3.74q-3.99 1.41-8.13 1.98-4.14.58-8.03.58-7.7 0-14.33-2.56-6.62-2.55-11.52-7.56-4.89-5-7.7-12.38t-2.81-17.1q0-7.56 2.45-14.22t7.02-11.59 11.16-7.81 14.87-2.88q6.98 0 12.88 2.23 5.91 2.23 10.16 6.51 4.24 4.29 6.66 10.52 2.41 6.22 2.41 14.22 0 4.03-.87 5.43-.86 1.41-3.31 1.41m66.6-31.18-4.03 6.41q-.72 1.15-1.51 1.62t-2.02.47q-1.29 0-2.77-.72t-3.42-1.62-4.43-1.62q-2.48-.72-5.87-.72-5.25 0-8.24 2.23t-2.99 5.83q0 2.38 1.55 4t4.1 2.84q2.56 1.22 5.8 2.2 3.24.97 6.59 2.12t6.59 2.63q3.24 1.47 5.79 3.74 2.56 2.27 4.11 5.44 1.54 3.17 1.54 7.63 0 5.33-1.9 9.83-1.91 4.5-5.66 7.77-3.74 3.28-9.25 5.12-5.51 1.83-12.71 1.83-3.81 0-7.45-.68-3.63-.69-6.98-1.91t-6.19-2.88q-2.85-1.66-5.01-3.6l4.11-6.77q.79-1.22 1.87-1.87t2.73-.65q1.66 0 3.14.94 1.47.93 3.42 2.01 1.94 1.08 4.57 2.02t6.66.94q3.17 0 5.43-.76 2.27-.76 3.75-1.98 1.47-1.22 2.16-2.84.68-1.62.68-3.35 0-2.59-1.55-4.25-1.54-1.66-4.1-2.88t-5.83-2.2q-3.28-.97-6.7-2.12t-6.69-2.7q-3.28-1.55-5.84-3.92-2.55-2.38-4.1-5.84-1.55-3.45-1.55-8.35 0-4.53 1.8-8.64 1.8-4.1 5.29-7.16 3.5-3.06 8.72-4.9 5.22-1.83 12.06-1.83 7.63 0 13.89 2.52 6.27 2.52 10.44 6.62m60.55 43.99v-33.12q-2.95-3.67-6.55-5.18t-7.7-1.51q-4.03 0-7.27 1.51t-5.55 4.57q-2.3 3.06-3.53 7.78-1.22 4.71-1.22 11.12 0 6.48 1.04 10.98 1.05 4.5 2.99 7.34 1.95 2.85 4.75 4.11 2.81 1.26 6.27 1.26 5.54 0 9.43-2.31 3.89-2.3 7.34-6.55m6.92-51.98h10.87v97.99h-17.79v-33.48q-4.39 4.68-9.93 7.56-5.55 2.88-12.89 2.88-6.05 0-11.09-2.52t-8.67-7.31q-3.64-4.79-5.62-11.84-1.98-7.06-1.98-16.13 0-8.21 2.23-15.26 2.23-7.06 6.41-12.24 4.18-5.19 10.01-8.1 5.83-2.92 13.1-2.92 6.91 0 11.59 2.38 4.68 2.37 8.36 6.4l.93-4.17q.94-3.24 4.47-3.24m74.3 0h17.78v73.87h-10.87q-3.53 0-4.46-3.24l-1.23-5.9q-4.53 4.6-10 7.45-5.48 2.84-12.89 2.84-6.05 0-10.69-2.05-4.65-2.05-7.82-5.8-3.16-3.74-4.78-8.89t-1.62-11.34v-46.94h17.78v46.94q0 6.77 3.13 10.48t9.4 3.71q4.61 0 8.64-2.06 4.03-2.05 7.63-5.65zm35.93 0h17.85v73.87h-17.85zm20.3-21.53q0 2.3-.93 4.32-.94 2.02-2.49 3.53t-3.63 2.41q-2.09.9-4.47.9-2.3 0-4.35-.9-2.06-.9-3.57-2.41t-2.41-3.53-.9-4.32q0-2.38.9-4.46.9-2.09 2.41-3.6 1.51-1.52 3.57-2.42 2.05-.9 4.35-.9 2.38 0 4.47.9 2.08.9 3.63 2.42 1.55 1.51 2.49 3.6.93 2.08.93 4.46m64.8 29.52-4.03 6.41q-.72 1.15-1.51 1.62t-2.02.47q-1.29 0-2.77-.72t-3.42-1.62-4.43-1.62q-2.48-.72-5.87-.72-5.25 0-8.24 2.23t-2.99 5.83q0 2.38 1.55 4t4.1 2.84q2.56 1.22 5.8 2.2 3.24.97 6.59 2.12t6.59 2.63q3.24 1.47 5.79 3.74 2.56 2.27 4.11 5.44 1.54 3.17 1.54 7.63 0 5.33-1.9 9.83-1.91 4.5-5.66 7.77-3.74 3.28-9.25 5.12-5.51 1.83-12.71 1.83-3.81 0-7.45-.68-3.63-.69-6.98-1.91t-6.19-2.88q-2.85-1.66-5.01-3.6l4.11-6.77q.79-1.22 1.87-1.87t2.73-.65q1.66 0 3.14.94 1.47.93 3.42 2.01 1.94 1.08 4.57 2.02t6.66.94q3.17 0 5.43-.76 2.27-.76 3.75-1.98 1.47-1.22 2.16-2.84.68-1.62.68-3.35 0-2.59-1.55-4.25-1.54-1.66-4.1-2.88t-5.83-2.2q-3.28-.97-6.7-2.12t-6.69-2.7q-3.28-1.55-5.84-3.92-2.55-2.38-4.1-5.84-1.55-3.45-1.55-8.35 0-4.53 1.8-8.64 1.8-4.1 5.29-7.16 3.5-3.06 8.72-4.9 5.22-1.83 12.06-1.83 7.63 0 13.89 2.52 6.27 2.52 10.44 6.62m53.21 46.8v-12.46q-7.7.36-12.96 1.34-5.26.97-8.42 2.48-3.17 1.51-4.54 3.53-1.37 2.01-1.37 4.39 0 4.68 2.77 6.7 2.78 2.01 7.24 2.01 5.47 0 9.47-1.98 3.99-1.98 7.81-6.01m-37.58-38.81-3.17-5.69q12.74-11.66 30.67-11.66 6.48 0 11.59 2.12 5.11 2.13 8.64 5.91t5.37 9.03q1.83 5.26 1.83 11.52v46.66h-8.06q-2.52 0-3.89-.76-1.37-.75-2.16-3.06l-1.58-5.32q-2.81 2.52-5.48 4.42-2.66 1.91-5.54 3.21-2.88 1.29-6.16 1.98-3.27.68-7.23.68-4.68 0-8.64-1.26t-6.84-3.78-4.47-6.26q-1.58-3.75-1.58-8.71 0-2.81.94-5.58.93-2.78 3.06-5.3 2.12-2.52 5.5-4.75 3.39-2.23 8.32-3.89 4.93-1.65 11.48-2.7 6.56-1.04 14.98-1.26v-4.32q0-7.41-3.17-10.98-3.17-3.56-9.14-3.56-4.32 0-7.17 1.01-2.84 1.01-5 2.27t-3.92 2.26q-1.77 1.01-3.93 1.01-1.87 0-3.17-.97-1.29-.97-2.08-2.27m153 36v-33.12q-3.03-3.67-6.59-5.18-3.57-1.51-7.67-1.51-4.03 0-7.27 1.51t-5.55 4.57q-2.3 3.06-3.52 7.78-1.23 4.71-1.23 11.12 0 6.48 1.05 10.98 1.04 4.5 2.98 7.34 1.95 2.85 4.76 4.11 2.8 1.26 6.26 1.26 5.54 0 9.43-2.31 3.89-2.3 7.35-6.55m0-85.1h17.78v106.99h-10.87q-3.53 0-4.47-3.24l-1.51-7.13q-4.46 5.11-10.26 8.28-5.79 3.17-13.5 3.17-6.05 0-11.09-2.52t-8.67-7.31q-3.64-4.79-5.62-11.84-1.98-7.06-1.98-16.13 0-8.21 2.23-15.26 2.24-7.06 6.41-12.24 4.18-5.19 10.01-8.1 5.83-2.92 13.1-2.92 6.2 0 10.59 1.94 4.39 1.95 7.85 5.26zm49.39 61.56h33.55q0-3.46-.97-6.52t-2.92-5.36q-1.94-2.31-4.93-3.64t-6.95-1.33q-7.7 0-12.13 4.39t-5.65 12.46m45.36 10.73h-45.72q.43 5.68 2.01 9.82 1.59 4.14 4.18 6.84t6.16 4.04q3.56 1.33 7.88 1.33t7.45-1.01 5.47-2.23q2.34-1.23 4.11-2.23 1.76-1.01 3.42-1.01 2.23 0 3.31 1.65l5.11 6.48q-2.95 3.46-6.62 5.8t-7.67 3.74q-4 1.41-8.14 1.98-4.14.58-8.02.58-7.71 0-14.33-2.56-6.63-2.55-11.52-7.56-4.9-5-7.71-12.38-2.8-7.38-2.8-17.1 0-7.56 2.44-14.22 2.45-6.66 7.02-11.59 4.58-4.93 11.16-7.81 6.59-2.88 14.87-2.88 6.99 0 12.89 2.23t10.15 6.51q4.25 4.29 6.66 10.52 2.41 6.22 2.41 14.22 0 4.03-.86 5.43-.86 1.41-3.31 1.41m126.79 10.15q1.58 0 2.81 1.22l7.63 8.28q-6.34 7.85-15.59 12.03-9.25 4.17-22.21 4.17-11.59 0-20.84-3.96-9.26-3.96-15.81-11.01-6.55-7.06-10.04-16.85t-3.49-21.39q0-11.73 3.74-21.49 3.74-9.75 10.55-16.81 6.8-7.06 16.23-10.98 9.44-3.92 20.88-3.92 11.38 0 20.2 3.74t15.01 9.79l-6.48 9q-.57.87-1.47 1.51-.9.65-2.49.65-1.08 0-2.23-.61t-2.52-1.51-3.17-1.98-4.17-1.98q-2.38-.9-5.51-1.51-3.13-.62-7.24-.62-6.98 0-12.78 2.49-5.79 2.48-9.97 7.2-4.18 4.71-6.48 11.52-2.3 6.8-2.3 15.51 0 8.79 2.48 15.63t6.73 11.52 10.01 7.16q5.76 2.49 12.38 2.49 3.96 0 7.17-.44 3.2-.43 5.9-1.36 2.7-.94 5.11-2.42 2.42-1.47 4.79-3.63.72-.65 1.51-1.05.8-.39 1.66-.39m21.17-82.44h17.78v106.99h-17.78zm36.14 33.12h17.86v73.87h-17.86zm20.31-21.53q0 2.3-.94 4.32t-2.48 3.53q-1.55 1.51-3.64 2.41t-4.46.9q-2.31 0-4.36-.9t-3.56-2.41q-1.52-1.51-2.42-3.53t-.9-4.32q0-2.38.9-4.46.9-2.09 2.42-3.6 1.51-1.52 3.56-2.42t4.36-.9q2.37 0 4.46.9t3.64 2.42q1.54 1.51 2.48 3.6.94 2.08.94 4.46m33.48 95.4h-17.79v-73.87h10.87q3.46 0 4.54 3.24l1.15 5.47q1.95-2.16 4.07-3.96t4.54-3.1q2.41-1.29 5.18-2.05 2.77-.75 6.08-.75 6.99 0 11.49 3.78t6.73 10.04q1.73-3.67 4.32-6.3t5.69-4.28q3.09-1.66 6.59-2.45 3.49-.79 7.02-.79 6.12 0 10.87 1.87t7.99 5.47 4.93 8.78q1.69 5.19 1.69 11.88v47.02h-17.78v-47.02q0-7.05-3.1-10.62-3.09-3.56-9.07-3.56-2.73 0-5.07.94-2.34.93-4.11 2.7-1.76 1.76-2.77 4.42-1.01 2.67-1.01 6.12v47.02h-17.85v-47.02q0-7.41-2.99-10.8-2.99-3.38-8.75-3.38-3.89 0-7.24 1.91-3.34 1.91-6.22 5.22zm141.84-19.08v-12.46q-7.71.36-12.96 1.34-5.26.97-8.43 2.48t-4.53 3.53q-1.37 2.01-1.37 4.39 0 4.68 2.77 6.7 2.77 2.01 7.24 2.01 5.47 0 9.46-1.98 4-1.98 7.82-6.01m-37.59-38.81-3.17-5.69q12.75-11.66 30.68-11.66 6.48 0 11.59 2.12 5.11 2.13 8.64 5.91t5.36 9.03q1.84 5.26 1.84 11.52v46.66h-8.07q-2.52 0-3.88-.76-1.37-.75-2.16-3.06l-1.59-5.32q-2.81 2.52-5.47 4.42-2.66 1.91-5.54 3.21-2.88 1.29-6.16 1.98-3.28.68-7.24.68-4.68 0-8.64-1.26t-6.84-3.78-4.46-6.26q-1.58-3.75-1.58-8.71 0-2.81.93-5.58.94-2.78 3.06-5.3 2.13-2.52 5.51-4.75t8.32-3.89q4.93-1.65 11.48-2.7 6.55-1.04 14.98-1.26v-4.32q0-7.41-3.17-10.98-3.17-3.56-9.15-3.56-4.32 0-7.16 1.01t-5 2.27-3.93 2.26q-1.76 1.01-3.92 1.01-1.87 0-3.17-.97t-2.09-2.27"/></svg>