<svg xmlns="http://www.w3.org/2000/svg" width="1920" height="1080" viewBox="0 0 1920 1080"><rect width="100%" height="100%" fill="#1F2937"/><path fill="#FFFFFF" d="M646.99 427.9h-42.37v28.25h35.77v14.19h-35.77v38.87H586.8v-95.44h60.19zm12.47 13.59h16.37v67.72h-16.37zm18.62-19.73q0 2.11-.86 3.96t-2.28 3.23q-1.42 1.39-3.33 2.21-1.92.83-4.09.83-2.12 0-4-.83-1.88-.82-3.26-2.21-1.39-1.38-2.21-3.23-.83-1.85-.83-3.96 0-2.18.83-4.09.82-1.92 2.21-3.3 1.38-1.39 3.26-2.21 1.88-.83 4-.83 2.17 0 4.09.83 1.91.82 3.33 2.21 1.42 1.38 2.28 3.3.86 1.91.86 4.09m56.89 67.39v-30.36q-2.71-3.37-6.01-4.76-3.3-1.38-7.06-1.38-3.7 0-6.67 1.38-2.97 1.39-5.08 4.2-2.11 2.8-3.23 7.12-1.12 4.33-1.12 10.2 0 5.94.95 10.06.96 4.13 2.74 6.74 1.78 2.6 4.36 3.76 2.57 1.15 5.74 1.15 5.08 0 8.65-2.11 3.56-2.11 6.73-6m6.33-47.66h9.97v89.83h-16.3v-30.69q-4.03 4.29-9.11 6.93t-11.81 2.64q-5.55 0-10.17-2.31t-7.95-6.7-5.15-10.86q-1.81-6.46-1.81-14.78 0-7.52 2.04-13.99 2.05-6.47 5.88-11.22 3.82-4.75 9.17-7.43 5.35-2.67 12.01-2.67 6.34 0 10.63 2.18t7.65 5.87l.86-3.83q.86-2.97 4.09-2.97m68.12 0h16.3v67.72h-9.97q-3.23 0-4.09-2.97l-1.12-5.41q-4.16 4.22-9.18 6.83-5.01 2.61-11.81 2.61-5.54 0-9.8-1.89-4.26-1.88-7.16-5.31-2.91-3.43-4.39-8.15-1.49-4.72-1.49-10.39v-43.04h16.31v43.04q0 6.2 2.87 9.6t8.61 3.4q4.22 0 7.92-1.88t7-5.18zm45.27 26.07h30.76q0-3.16-.89-5.97-.89-2.8-2.68-4.92-1.78-2.11-4.52-3.33t-6.37-1.22q-7.06 0-11.12 4.03-4.06 4.02-5.18 11.41m41.58 9.84h-41.91q.4 5.21 1.85 9.01 1.45 3.79 3.83 6.27 2.37 2.47 5.64 3.69t7.23 1.22 6.83-.92 5.02-2.05q2.14-1.12 3.76-2.04 1.61-.93 3.13-.93 2.05 0 3.04 1.52l4.68 5.94q-2.7 3.17-6.07 5.31-3.36 2.15-7.03 3.44-3.66 1.28-7.45 1.81-3.8.53-7.36.53-7.07 0-13.14-2.34-6.07-2.35-10.56-6.93-4.49-4.59-7.06-11.36-2.57-6.76-2.57-15.67 0-6.93 2.24-13.03 2.24-6.11 6.44-10.63 4.19-4.52 10.23-7.16 6.03-2.64 13.62-2.64 6.41 0 11.82 2.04 5.41 2.05 9.3 5.98 3.9 3.92 6.11 9.63t2.21 13.04q0 3.69-.79 4.98t-3.04 1.29m70.75-4.23h30.36l-11.61-31.74q-.86-2.11-1.78-5.02-.93-2.9-1.85-6.27-.86 3.37-1.78 6.3-.93 2.94-1.79 5.12zm24.23-59.4 37.48 95.44h-13.72q-2.31 0-3.77-1.16-1.45-1.15-2.17-2.87l-7.13-19.47H962.4l-7.12 19.47q-.53 1.52-2.05 2.78-1.52 1.25-3.76 1.25h-13.86l37.55-95.44zm67.38 96.5q-8.84 0-13.56-4.99-4.72-4.98-4.72-13.76V453.7h-6.93q-1.32 0-2.24-.85-.93-.86-.93-2.58v-6.47l10.89-1.78 3.43-18.48q.33-1.32 1.26-2.04.92-.73 2.37-.73h8.45v21.32h18.09v11.61h-18.09v36.7q0 3.17 1.55 4.95t4.26 1.78q1.52 0 2.54-.36t1.78-.76 1.36-.76q.59-.36 1.18-.36.73 0 1.19.36t.99 1.09l4.89 7.92q-3.57 2.97-8.19 4.49t-9.57 1.52m39.4-42.71h30.76q0-3.16-.89-5.97-.89-2.8-2.67-4.92-1.79-2.11-4.52-3.33-2.74-1.22-6.37-1.22-7.07 0-11.12 4.03-4.06 4.02-5.19 11.41m41.58 9.84h-41.91q.4 5.21 1.85 9.01 1.45 3.79 3.83 6.27 2.38 2.47 5.64 3.69 3.27 1.22 7.23 1.22t6.83-.92 5.02-2.05q2.14-1.12 3.76-2.04 1.62-.93 3.13-.93 2.05 0 3.04 1.52l4.69 5.94q-2.71 3.17-6.08 5.31-3.36 2.15-7.02 3.44-3.67 1.28-7.46 1.81-3.8.53-7.36.53-7.06 0-13.14-2.34-6.07-2.35-10.56-6.93-4.48-4.59-7.06-11.36-2.57-6.76-2.57-15.67 0-6.93 2.24-13.03 2.25-6.11 6.44-10.63t10.23-7.16 13.63-2.64q6.4 0 11.81 2.04 5.41 2.05 9.31 5.98 3.89 3.92 6.1 9.63t2.21 13.04q0 3.69-.79 4.98t-3.04 1.29m30.17-32.94 1.12 5.35q2.04-2.05 4.32-3.8 2.28-1.74 4.82-2.97 2.54-1.22 5.44-1.91 2.91-.69 6.34-.69 5.54 0 9.83 1.88t7.17 5.28q2.87 3.4 4.35 8.12 1.49 4.72 1.49 10.39v43.1h-16.31v-43.1q0-6.2-2.83-9.6-2.84-3.4-8.65-3.4-4.22 0-7.92 1.91-3.7 1.92-7 5.22v48.97h-16.3v-67.72h9.97q3.17 0 4.16 2.97m82.89 65.81q-8.84 0-13.56-4.99-4.72-4.98-4.72-13.76V453.7h-6.93q-1.32 0-2.24-.85-.93-.86-.93-2.58v-6.47l10.89-1.78 3.43-18.48q.33-1.32 1.26-2.04.92-.73 2.37-.73h8.45v21.32h18.09v11.61h-18.09v36.7q0 3.17 1.55 4.95t4.26 1.78q1.52 0 2.54-.36t1.78-.76 1.36-.76q.59-.36 1.18-.36.73 0 1.19.36t.99 1.09l4.89 7.92q-3.57 2.97-8.19 4.49t-9.57 1.52m56.5-69.83q7.52 0 13.69 2.44t10.56 6.93 6.77 10.96q2.37 6.46 2.37 14.45 0 8.05-2.37 14.52-2.38 6.47-6.77 11.02-4.39 4.56-10.56 7t-13.69 2.44q-7.59 0-13.8-2.44-6.2-2.44-10.59-7-4.39-4.55-6.8-11.02t-2.41-14.52q0-7.99 2.41-14.45 2.41-6.47 6.8-10.96t10.59-6.93q6.21-2.44 13.8-2.44m0 57.22q8.45 0 12.51-5.68 4.05-5.67 4.05-16.63 0-10.95-4.05-16.7-4.06-5.74-12.51-5.74-8.58 0-12.71 5.78-4.12 5.77-4.12 16.66t4.12 16.6q4.13 5.71 12.71 5.71M460.74 645.1q1.45 0 2.57 1.13l7 7.59q-5.81 7.19-14.29 11.02t-20.36 3.83q-10.63 0-19.11-3.63t-14.48-10.1q-6.01-6.47-9.21-15.45-3.2-8.97-3.2-19.6 0-10.76 3.43-19.7t9.67-15.41 14.88-10.07q8.65-3.59 19.14-3.59 10.43 0 18.51 3.43 8.09 3.43 13.77 8.98l-5.94 8.25q-.53.79-1.36 1.38-.82.6-2.27.6-.99 0-2.05-.57-1.06-.56-2.31-1.38-1.25-.83-2.9-1.82t-3.83-1.81q-2.18-.83-5.05-1.39t-6.63-.56q-6.41 0-11.72 2.28t-9.14 6.6-5.94 10.56-2.11 14.22q0 8.05 2.27 14.32 2.28 6.27 6.18 10.56 3.89 4.29 9.17 6.57t11.35 2.28q3.63 0 6.57-.4 2.94-.39 5.41-1.25 2.48-.86 4.69-2.21 2.21-1.36 4.39-3.34.66-.59 1.38-.95.73-.37 1.52-.37m49.17-46.26q7.52 0 13.69 2.44 6.18 2.44 10.56 6.93 4.39 4.49 6.77 10.96 2.38 6.46 2.38 14.45 0 8.05-2.38 14.52t-6.77 11.02q-4.38 4.56-10.56 7-6.17 2.44-13.69 2.44-7.59 0-13.79-2.44-6.21-2.44-10.6-7-4.39-4.55-6.8-11.02-2.4-6.47-2.4-14.52 0-7.99 2.4-14.45 2.41-6.47 6.8-10.96t10.6-6.93q6.2-2.44 13.79-2.44m0 57.22q8.45 0 12.51-5.68 4.06-5.67 4.06-16.63 0-10.95-4.06-16.7-4.06-5.74-12.51-5.74-8.58 0-12.71 5.78-4.12 5.77-4.12 16.66t4.12 16.6q4.13 5.71 12.71 5.71m62.17 11.55h-16.3v-67.72h9.97q3.16 0 4.15 2.97l1.06 5.02q1.78-1.98 3.73-3.63t4.16-2.84 4.75-1.88 5.58-.69q6.4 0 10.52 3.46 4.13 3.47 6.17 9.21 1.59-3.37 3.96-5.77 2.38-2.41 5.22-3.93t6.04-2.25q3.2-.72 6.43-.72 5.61 0 9.97 1.71 4.35 1.72 7.32 5.02t4.52 8.05q1.56 4.75 1.56 10.89v43.1h-16.31v-43.1q0-6.47-2.83-9.73-2.84-3.27-8.32-3.27-2.51 0-4.65.86-2.15.86-3.77 2.47-1.61 1.62-2.54 4.06-.92 2.44-.92 5.61v43.1h-16.37v-43.1q0-6.8-2.74-9.9t-8.02-3.1q-3.56 0-6.63 1.75t-5.71 4.78zm136.29-67.72h16.3v67.72h-9.96q-3.24 0-4.09-2.97l-1.13-5.41q-4.15 4.22-9.17 6.83t-11.81 2.61q-5.55 0-9.81-1.88-4.25-1.89-7.16-5.32-2.9-3.43-4.39-8.15-1.48-4.72-1.48-10.39v-43.04h16.3v43.04q0 6.2 2.87 9.6t8.62 3.4q4.22 0 7.92-1.88 3.69-1.88 6.99-5.18zm46.53 2.97 1.12 5.35q2.05-2.05 4.33-3.79 2.27-1.75 4.81-2.98 2.55-1.22 5.45-1.91t6.34-.69q5.54 0 9.83 1.88t7.16 5.28 4.36 8.12q1.48 4.72 1.48 10.39v43.1h-16.3v-43.1q0-6.2-2.84-9.6t-8.64-3.4q-4.23 0-7.92 1.91-3.7 1.92-7 5.22v48.97h-16.3v-67.72h9.96q3.17 0 4.16 2.97m60.85-2.97h16.37v67.72h-16.37zm18.62-19.73q0 2.11-.86 3.96t-2.28 3.23q-1.42 1.39-3.33 2.22-1.92.82-4.09.82-2.12 0-4-.82-1.88-.83-3.26-2.22-1.39-1.38-2.22-3.23-.82-1.85-.82-3.96 0-2.18.82-4.09.83-1.92 2.22-3.3 1.38-1.39 3.26-2.21 1.88-.83 4-.83 2.17 0 4.09.83 1.91.82 3.33 2.21 1.42 1.38 2.28 3.3.86 1.91.86 4.09m67.18 28.12-4.29 5.94q-.72.92-1.42 1.45-.69.53-2.01.53-1.25 0-2.44-.76t-2.84-1.72-3.93-1.71q-2.27-.76-5.64-.76-4.29 0-7.52 1.55-3.24 1.55-5.38 4.45-2.15 2.91-3.2 7.03-1.06 4.13-1.06 9.34 0 5.41 1.16 9.64 1.15 4.22 3.33 7.09t5.28 4.36q3.1 1.48 7 1.48 3.89 0 6.3-.95 2.41-.96 4.06-2.12 1.65-1.15 2.87-2.11t2.74-.96q1.98 0 2.97 1.52l4.68 5.94q-2.7 3.17-5.87 5.32-3.17 2.14-6.57 3.43-3.4 1.28-6.99 1.81-3.6.53-7.16.53-6.27 0-11.82-2.34-5.54-2.35-9.7-6.83-4.16-4.49-6.57-10.99t-2.41-14.82q0-7.46 2.15-13.83 2.14-6.37 6.3-11.02t10.3-7.29 14.12-2.64q7.59 0 13.3 2.44t10.26 7m46.6 41.84V638.7q-7.06.33-11.88 1.22t-7.72 2.28q-2.91 1.39-4.16 3.23-1.25 1.85-1.25 4.03 0 4.29 2.54 6.14t6.63 1.85q5.02 0 8.68-1.82 3.66-1.81 7.16-5.51m-34.45-35.57-2.91-5.22q11.69-10.69 28.12-10.69 5.94 0 10.63 1.95 4.68 1.94 7.92 5.41 3.23 3.46 4.91 8.28 1.69 4.82 1.69 10.56v42.77h-7.4q-2.31 0-3.56-.69-1.25-.7-1.98-2.81l-1.45-4.88q-2.58 2.31-5.02 4.06t-5.08 2.93q-2.64 1.19-5.64 1.82-3.01.63-6.64.63-4.29 0-7.92-1.16-3.63-1.15-6.27-3.46t-4.09-5.75q-1.45-3.43-1.45-7.98 0-2.58.86-5.12t2.8-4.85q1.95-2.31 5.05-4.35 3.1-2.05 7.62-3.57 4.53-1.52 10.53-2.47 6.01-.96 13.73-1.16v-3.96q0-6.8-2.9-10.06-2.91-3.27-8.39-3.27-3.96 0-6.56.92-2.61.93-4.59 2.08-1.98 1.16-3.6 2.08-1.61.93-3.59.93-1.72 0-2.91-.89-1.19-.9-1.91-2.08m108.17 33v-30.36q-2.77-3.37-6.04-4.76-3.26-1.38-7.03-1.38-3.69 0-6.66 1.38-2.97 1.39-5.08 4.2-2.12 2.8-3.24 7.12-1.12 4.33-1.12 10.2 0 5.94.96 10.07.95 4.12 2.74 6.73 1.78 2.6 4.35 3.76 2.58 1.15 5.74 1.15 5.09 0 8.65-2.11t6.73-6m0-78.02h16.3v98.08h-9.96q-3.24 0-4.09-2.97l-1.39-6.53q-4.09 4.68-9.41 7.59-5.31 2.9-12.37 2.9-5.54 0-10.16-2.31t-7.96-6.7q-3.33-4.39-5.15-10.86-1.81-6.46-1.81-14.78 0-7.52 2.05-13.99 2.04-6.47 5.87-11.22t9.17-7.43q5.35-2.67 12.02-2.67 5.67 0 9.7 1.78 4.02 1.78 7.19 4.82zm62.37 29.31q7.53 0 13.7 2.44t10.56 6.93 6.76 10.96q2.38 6.46 2.38 14.45 0 8.05-2.38 14.52-2.37 6.47-6.76 11.02-4.39 4.56-10.56 7t-13.7 2.44q-7.59 0-13.79-2.44-6.21-2.44-10.6-7-4.38-4.55-6.79-11.02t-2.41-14.52q0-7.99 2.41-14.45 2.41-6.47 6.79-10.96 4.39-4.49 10.6-6.93 6.2-2.44 13.79-2.44m0 57.22q8.45 0 12.51-5.68 4.06-5.67 4.06-16.63 0-10.95-4.06-16.7-4.06-5.74-12.51-5.74-8.58 0-12.7 5.78-4.13 5.77-4.13 16.66t4.13 16.6q4.12 5.71 12.7 5.71m171.54-36.17q0 10.5-3.47 19.44-3.46 8.94-9.8 15.48-6.34 6.53-15.25 10.19-8.91 3.67-19.8 3.67-10.82 0-19.73-3.67-8.91-3.66-15.28-10.19-6.37-6.54-9.87-15.48-3.49-8.94-3.49-19.44 0-10.49 3.49-19.43 3.5-8.95 9.87-15.48 6.37-6.54 15.28-10.2t19.73-3.66q7.26 0 13.67 1.68 6.4 1.68 11.74 4.75 5.35 3.07 9.61 7.46 4.25 4.39 7.22 9.8t4.52 11.75q1.56 6.34 1.56 13.33m-18.15 0q0-7.85-2.12-14.09-2.11-6.24-6-10.59-3.9-4.36-9.47-6.67-5.58-2.31-12.58-2.31-6.99 0-12.57 2.31t-9.5 6.67q-3.93 4.35-6.04 10.59t-2.11 14.09q0 7.86 2.11 14.09 2.11 6.24 6.04 10.56 3.92 4.33 9.5 6.64t12.57 2.31q7 0 12.58-2.31 5.57-2.31 9.47-6.64 3.89-4.32 6-10.56 2.12-6.23 2.12-14.09m52.27 47.72h-16.3v-55.44l-5.88-.92q-1.91-.4-3.07-1.36-1.15-.95-1.15-2.74v-6.66h10.1v-5.02q0-5.81 1.74-10.43 1.75-4.62 5.02-7.85t7.95-4.95q4.69-1.72 10.56-1.72 4.69 0 8.72 1.26l-.33 8.18q-.07.93-.53 1.49t-1.22.85q-.76.3-1.75.4t-2.11.1q-2.91 0-5.19.63-2.27.62-3.86 2.17-1.58 1.56-2.41 4.1-.82 2.54-.82 6.3v4.49h17.62v11.61h-17.09zm26.79-67.72h16.37v67.72h-16.37zm18.62-19.73q0 2.11-.86 3.96t-2.28 3.23q-1.42 1.39-3.33 2.22-1.92.82-4.09.82-2.12 0-4-.82-1.88-.83-3.26-2.22-1.39-1.38-2.22-3.23-.82-1.85-.82-3.96 0-2.18.82-4.09.83-1.92 2.22-3.3 1.38-1.39 3.26-2.21 1.88-.83 4-.83 2.17 0 4.09.83 1.91.82 3.33 2.21 1.42 1.38 2.28 3.3.86 1.91.86 4.09m67.18 28.12-4.29 5.94q-.72.92-1.42 1.45-.69.53-2.01.53-1.25 0-2.44-.76t-2.84-1.72-3.93-1.71q-2.27-.76-5.64-.76-4.29 0-7.52 1.55-3.24 1.55-5.38 4.45-2.15 2.91-3.2 7.03-1.06 4.13-1.06 9.34 0 5.41 1.16 9.64 1.15 4.22 3.33 7.09t5.28 4.36q3.1 1.48 7 1.48 3.89 0 6.3-.95 2.41-.96 4.06-2.12 1.65-1.15 2.87-2.11t2.74-.96q1.98 0 2.97 1.52l4.68 5.94q-2.7 3.17-5.87 5.32-3.17 2.14-6.57 3.43-3.4 1.28-6.99 1.81-3.6.53-7.16.53-6.27 0-11.82-2.34-5.54-2.35-9.7-6.83-4.16-4.49-6.57-10.99t-2.41-14.82q0-7.46 2.15-13.83 2.14-6.37 6.3-11.02t10.3-7.29 14.12-2.64q7.59 0 13.3 2.44t10.26 7m11.36-8.39h16.36v67.72h-16.36zm18.61-19.73q0 2.11-.86 3.96t-2.28 3.23q-1.42 1.39-3.33 2.22-1.91.82-4.09.82-2.11 0-4-.82-1.88-.83-3.26-2.22-1.39-1.38-2.21-3.23-.83-1.85-.83-3.96 0-2.18.83-4.09.82-1.92 2.21-3.3 1.38-1.39 3.26-2.21 1.89-.83 4-.83 2.18 0 4.09.83 1.91.82 3.33 2.21 1.42 1.38 2.28 3.3.86 1.91.86 4.09m50.16 69.96V638.7q-7.06.33-11.88 1.22t-7.72 2.28q-2.91 1.39-4.16 3.23-1.26 1.85-1.26 4.03 0 4.29 2.54 6.14 2.55 1.85 6.64 1.85 5.01 0 8.68-1.82 3.66-1.81 7.16-5.51m-34.45-35.57-2.91-5.22q11.68-10.69 28.12-10.69 5.94 0 10.62 1.95 4.69 1.94 7.92 5.41 3.24 3.46 4.92 8.28t1.68 10.56v42.77h-7.39q-2.31 0-3.56-.69-1.26-.7-1.98-2.81l-1.45-4.88q-2.58 2.31-5.02 4.06t-5.08 2.93q-2.64 1.19-5.65 1.82-3 .63-6.63.63-4.29 0-7.92-1.16-3.63-1.15-6.27-3.46t-4.09-5.75q-1.45-3.43-1.45-7.98 0-2.58.86-5.12.85-2.54 2.8-4.85t5.05-4.35q3.1-2.05 7.62-3.57t10.53-2.47q6.01-.96 13.73-1.16v-3.96q0-6.8-2.91-10.06-2.9-3.27-8.38-3.27-3.96 0-6.57.92-2.6.93-4.58 2.08-1.98 1.16-3.6 2.08-1.62.93-3.6.93-1.71 0-2.9-.89-1.19-.9-1.91-2.08m65.86-45.02h16.31v98.08h-16.31z"/></svg>