<svg xmlns="http://www.w3.org/2000/svg" width="800" height="450" viewBox="0 0 800 450"><rect width="100%" height="100%" fill="#FFC107"/><path fill="#333333" d="M177.86 252.225H192q3.9 0 6.55-.94 2.66-.93 4.24-2.49 1.59-1.56 2.29-3.64t.7-4.42q0-2.45-.78-4.4t-2.44-3.32q-1.67-1.38-4.29-2.11-2.63-.73-6.32-.73h-14.09zm11.91-53.46h-11.91v21.74h11.13q7.17 0 10.84-2.6 3.66-2.6 3.66-8.27 0-5.87-3.32-8.37-3.33-2.5-10.4-2.5m-25.9-10.81h25.9q7.38 0 12.63 1.4 5.25 1.41 8.61 4.01 3.35 2.6 4.91 6.29t1.56 8.32q0 2.65-.78 5.07t-2.42 4.52q-1.63 2.11-4.16 3.82-2.52 1.72-6 2.92 15.49 3.48 15.49 16.74 0 4.78-1.82 8.84t-5.3 6.99q-3.48 2.94-8.58 4.61-5.1 1.66-11.65 1.66h-28.39zm76.6 42.38h24.23q0-2.5-.7-4.71-.71-2.21-2.11-3.87-1.4-1.67-3.56-2.63t-5.02-.96q-5.56 0-8.76 3.17t-4.08 9m32.76 7.75h-33.02q.31 4.1 1.45 7.09 1.15 2.99 3.02 4.94t4.44 2.92q2.58.96 5.7.96t5.38-.73 3.95-1.61q1.69-.89 2.97-1.61 1.27-.73 2.47-.73 1.61 0 2.39 1.19l3.69 4.68q-2.13 2.5-4.78 4.19-2.66 1.69-5.54 2.7-2.89 1.02-5.88 1.43-2.99.42-5.8.42-5.56 0-10.34-1.85-4.79-1.84-8.32-5.46-3.54-3.61-5.57-8.94t-2.03-12.35q0-5.46 1.77-10.27t5.07-8.37 8.06-5.64 10.74-2.08q5.04 0 9.31 1.61 4.26 1.61 7.33 4.7 3.07 3.1 4.81 7.6 1.74 4.49 1.74 10.27 0 2.91-.62 3.92-.63 1.02-2.39 1.02m23.76-25.95.88 4.21q1.62-1.61 3.41-2.99t3.8-2.34q2-.96 4.29-1.51 2.28-.54 4.99-.54 4.37 0 7.75 1.48t5.64 4.16 3.43 6.39q1.17 3.72 1.17 8.19v33.96h-12.84v-33.96q0-4.88-2.24-7.56t-6.81-2.68q-3.33 0-6.24 1.51t-5.51 4.11v38.58h-12.85v-53.35h7.85q2.5 0 3.28 2.34m57.67 18.2h24.23q0-2.5-.7-4.71t-2.11-3.87q-1.4-1.67-3.56-2.63t-5.02-.96q-5.56 0-8.76 3.17t-4.08 9m32.76 7.75H354.4q.31 4.1 1.45 7.09 1.15 2.99 3.02 4.94t4.45 2.92q2.57.96 5.69.96t5.38-.73 3.95-1.61q1.69-.89 2.97-1.61 1.27-.73 2.47-.73 1.61 0 2.39 1.19l3.69 4.68q-2.13 2.5-4.78 4.19t-5.54 2.7q-2.89 1.02-5.88 1.43-2.99.42-5.79.42-5.57 0-10.35-1.85-4.79-1.84-8.32-5.46-3.54-3.61-5.57-8.94-2.02-5.33-2.02-12.35 0-5.46 1.76-10.27 1.77-4.81 5.07-8.37 3.31-3.56 8.06-5.64 4.76-2.08 10.74-2.08 5.05 0 9.31 1.61t7.33 4.7q3.07 3.1 4.81 7.6 1.74 4.49 1.74 10.27 0 2.91-.62 3.92-.62 1.02-2.39 1.02m29.22 25.06H403.8v-43.68l-4.63-.73q-1.51-.31-2.42-1.06-.91-.76-.91-2.16v-5.25h7.96v-3.96q0-4.57 1.38-8.21 1.37-3.64 3.95-6.19 2.57-2.55 6.26-3.9 3.7-1.35 8.32-1.35 3.7 0 6.87.99l-.26 6.44q-.05.73-.42 1.17-.36.45-.96.68t-1.38.31-1.66.08q-2.29 0-4.08.49-1.8.5-3.05 1.72-1.24 1.22-1.89 3.22-.65 2.01-.65 4.97v3.54h13.88v9.15h-13.47zm21.17-53.35h12.84v53.35h-12.84zm12.32-22.67h12.48l-12.84 13.57q-.99 1.04-1.9 1.43t-2.37.39h-7.69l7.38-12.64q.78-1.35 1.82-2.05t3.12-.7m55.28 29.27-3.38 4.68q-.58.73-1.12 1.15-.55.41-1.59.41-.99 0-1.92-.6-.94-.59-2.24-1.35-1.3-.75-3.09-1.35-1.8-.6-4.45-.6-3.38 0-5.93 1.22-2.54 1.23-4.23 3.51-1.69 2.29-2.53 5.54-.83 3.25-.83 7.36 0 4.26.91 7.59t2.63 5.59q1.71 2.26 4.16 3.43 2.44 1.17 5.51 1.17t4.97-.75q1.89-.75 3.19-1.66t2.27-1.67q.96-.75 2.15-.75 1.56 0 2.34 1.19l3.7 4.68q-2.14 2.5-4.63 4.19-2.5 1.69-5.18 2.7-2.67 1.02-5.51 1.43-2.83.42-5.64.42-4.94 0-9.31-1.85-4.37-1.84-7.64-5.38-3.28-3.53-5.18-8.66-1.89-5.12-1.89-11.67 0-5.88 1.69-10.89 1.69-5.02 4.96-8.69 3.28-3.66 8.11-5.74 4.84-2.08 11.13-2.08 5.98 0 10.48 1.92t8.09 5.51m8.94-6.6h12.9v53.35h-12.9zm14.66-15.55q0 1.66-.67 3.12-.68 1.46-1.8 2.55-1.11 1.09-2.62 1.74t-3.23.65q-1.66 0-3.14-.65t-2.58-1.74q-1.09-1.09-1.74-2.55t-.65-3.12q0-1.72.65-3.22.65-1.51 1.74-2.6 1.1-1.1 2.58-1.75t3.14-.65q1.72 0 3.23.65t2.62 1.75q1.12 1.09 1.8 2.6.67 1.5.67 3.22m34.95 14.72q5.93 0 10.79 1.92t8.32 5.46 5.33 8.63q1.87 5.1 1.87 11.39 0 6.34-1.87 11.44t-5.33 8.68q-3.46 3.59-8.32 5.52-4.86 1.92-10.79 1.92-5.98 0-10.87-1.92-4.89-1.93-8.35-5.52-3.45-3.58-5.35-8.68t-1.9-11.44q0-6.29 1.9-11.39 1.9-5.09 5.35-8.63 3.46-3.54 8.35-5.46t10.87-1.92m0 45.08q6.65 0 9.85-4.47t3.2-13.11q0-8.63-3.2-13.15-3.2-4.53-9.85-4.53-6.76 0-10.01 4.55t-3.25 13.13 3.25 13.08 10.01 4.5m71.6-38.48-2.91 4.63q-.52.83-1.09 1.17t-1.46.34q-.93 0-2-.52t-2.47-1.17-3.2-1.17q-1.79-.52-4.24-.52-3.79 0-5.95 1.61t-2.16 4.21q0 1.72 1.12 2.89t2.96 2.05q1.85.88 4.19 1.59 2.34.7 4.76 1.53t4.76 1.9q2.34 1.06 4.18 2.7 1.85 1.64 2.97 3.93 1.11 2.29 1.11 5.51 0 3.85-1.37 7.1-1.38 3.25-4.09 5.61-2.7 2.37-6.68 3.7-3.98 1.32-9.18 1.32-2.75 0-5.38-.49-2.62-.5-5.04-1.38t-4.47-2.08q-2.06-1.2-3.62-2.6l2.97-4.89q.57-.88 1.35-1.35t1.97-.47q1.2 0 2.27.68 1.06.67 2.47 1.45 1.4.78 3.3 1.46t4.81.68q2.29 0 3.92-.55 1.64-.55 2.71-1.43 1.06-.88 1.56-2.05.49-1.17.49-2.42 0-1.87-1.12-3.07-1.11-1.2-2.96-2.08t-4.21-1.59q-2.37-.7-4.84-1.53t-4.83-1.95q-2.37-1.12-4.22-2.83-1.84-1.72-2.96-4.22-1.12-2.49-1.12-6.03 0-3.27 1.3-6.24 1.3-2.96 3.82-5.17 2.53-2.21 6.3-3.54 3.77-1.32 8.71-1.32 5.51 0 10.03 1.82 4.53 1.82 7.54 4.78"/></svg>