<svg xmlns="http://www.w3.org/2000/svg" width="800" height="450" viewBox="0 0 800 450"><rect width="100%" height="100%" fill="#E0E0E0"/><path fill="#333333" d="M204.84 186.38q.88 0 1.56.68l4.24 4.6q-3.52 4.36-8.66 6.68t-12.34 2.32q-6.44 0-11.58-2.2t-8.78-6.12-5.58-9.36-1.94-11.88q0-6.52 2.08-11.94t5.86-9.34 9.02-6.1 11.6-2.18q6.32 0 11.22 2.08t8.34 5.44l-3.6 5q-.32.48-.82.84t-1.38.36q-.6 0-1.24-.34t-1.4-.84-1.76-1.1-2.32-1.1-3.06-.84-4.02-.34q-3.88 0-7.1 1.38t-5.54 4-3.6 6.4-1.28 8.62q0 4.88 1.38 8.68t3.74 6.4 5.56 3.98 6.88 1.38q2.2 0 3.98-.24t3.28-.76 2.84-1.34 2.66-2.02q.4-.36.84-.58t.92-.22m29.8-28.04q4.56 0 8.3 1.48t6.4 4.2 4.1 6.64 1.44 8.76q0 4.88-1.44 8.8t-4.1 6.68-6.4 4.24-8.3 1.48q-4.6 0-8.36-1.48t-6.42-4.24-4.12-6.68-1.46-8.8q0-4.84 1.46-8.76t4.12-6.64 6.42-4.2 8.36-1.48m0 34.68q5.12 0 7.58-3.44t2.46-10.08-2.46-10.12-7.58-3.48q-5.2 0-7.7 3.5t-2.5 10.1 2.5 10.06 7.7 3.46m37.68 7h-9.88v-41.04h6.04q1.92 0 2.52 1.8l.64 3.04q1.08-1.2 2.26-2.2t2.52-1.72 2.88-1.14 3.38-.42q3.88 0 6.38 2.1t3.74 5.58q.96-2.04 2.4-3.5t3.16-2.38 3.66-1.36 3.9-.44q3.4 0 6.04 1.04t4.44 3.04 2.74 4.88.94 6.6v26.12h-9.88V173.9q0-3.92-1.72-5.9t-5.04-1.98q-1.52 0-2.82.52t-2.28 1.5-1.54 2.46-.56 3.4v26.12h-9.92V173.9q0-4.12-1.66-6t-4.86-1.88q-2.16 0-4.02 1.06t-3.46 2.9zm82.6-41.04h9.88v41.04h-6.04q-1.96 0-2.48-1.8l-.68-3.28q-2.52 2.56-5.56 4.14t-7.16 1.58q-3.36 0-5.94-1.14t-4.34-3.22-2.66-4.94-.9-6.3v-26.08h9.88v26.08q0 3.76 1.74 5.82t5.22 2.06q2.56 0 4.8-1.14t4.24-3.14zm28.2 1.8.68 3.24q1.24-1.24 2.62-2.3t2.92-1.8 3.3-1.16 3.84-.42q3.36 0 5.96 1.14t4.34 3.2 2.64 4.92.9 6.3v26.12h-9.88V173.9q0-3.76-1.72-5.82t-5.24-2.06q-2.56 0-4.8 1.16t-4.24 3.16v29.68h-9.88v-41.04h6.04q1.92 0 2.52 1.8m36.88-1.8h9.92v41.04H420zm11.28-11.96q0 1.28-.52 2.4t-1.38 1.96-2.02 1.34-2.48.5q-1.28 0-2.42-.5t-1.98-1.34-1.34-1.96-.5-2.4q0-1.32.5-2.48t1.34-2 1.98-1.34 2.42-.5q1.32 0 2.48.5t2.02 1.34 1.38 2 .52 2.48M472 164.06l-2.6 3.6q-.44.56-.86.88t-1.22.32q-.76 0-1.48-.46t-1.72-1.04-2.38-1.04-3.42-.46q-2.6 0-4.56.94t-3.26 2.7-1.94 4.26-.64 5.66q0 3.28.7 5.84t2.02 4.3 3.2 2.64 4.24.9 3.82-.58 2.46-1.28 1.74-1.28 1.66-.58q1.2 0 1.8.92l2.84 3.6q-1.64 1.92-3.56 3.22t-3.98 2.08-4.24 1.1-4.34.32q-3.8 0-7.16-1.42t-5.88-4.14-3.98-6.66-1.46-8.98q0-4.52 1.3-8.38t3.82-6.68 6.24-4.42 8.56-1.6q4.6 0 8.06 1.48t6.22 4.24m28.24 25.36v-6.92q-4.28.2-7.2.74t-4.68 1.38-2.52 1.96-.76 2.44q0 2.6 1.54 3.72t4.02 1.12q3.04 0 5.26-1.1t4.34-3.34m-20.88-21.56-1.76-3.16q7.08-6.48 17.04-6.48 3.6 0 6.44 1.18t4.8 3.28 2.98 5.02 1.02 6.4v25.92h-4.48q-1.4 0-2.16-.42t-1.2-1.7l-.88-2.96q-1.56 1.4-3.04 2.46t-3.08 1.78-3.42 1.1-4.02.38q-2.6 0-4.8-.7t-3.8-2.1-2.48-3.48-.88-4.84q0-1.56.52-3.1t1.7-2.94 3.06-2.64 4.62-2.16 6.38-1.5 8.32-.7v-2.4q0-4.12-1.76-6.1t-5.08-1.98q-2.4 0-3.98.56t-2.78 1.26-2.18 1.26-2.18.56q-1.04 0-1.76-.54t-1.16-1.26m65.56 20v-18.4q-1.68-2.04-3.66-2.88t-4.26-.84q-2.24 0-4.04.84t-3.08 2.54-1.96 4.32-.68 6.18q0 3.6.58 6.1t1.66 4.08 2.64 2.28 3.48.7q3.08 0 5.24-1.28t4.08-3.64m0-47.28h9.88v59.44h-6.04q-1.96 0-2.48-1.8l-.84-3.96q-2.48 2.84-5.7 4.6t-7.5 1.76q-3.36 0-6.16-1.4t-4.82-4.06-3.12-6.58-1.1-8.96q0-4.56 1.24-8.48t3.56-6.8 5.56-4.5 7.28-1.62q3.44 0 5.88 1.08t4.36 2.92zm37.8 17.76q4.56 0 8.3 1.48t6.4 4.2 4.1 6.64 1.44 8.76q0 4.88-1.44 8.8t-4.1 6.68-6.4 4.24-8.3 1.48q-4.6 0-8.36-1.48t-6.42-4.24-4.12-6.68-1.46-8.8q0-4.84 1.46-8.76t4.12-6.64 6.42-4.2 8.36-1.48m0 34.68q5.12 0 7.58-3.44t2.46-10.08-2.46-10.12-7.58-3.48q-5.2 0-7.7 3.5t-2.5 10.1 2.5 10.06 7.7 3.46m55.08-29.6-2.24 3.56q-.4.64-.84.9t-1.12.26q-.72 0-1.54-.4t-1.9-.9-2.46-.9-3.26-.4q-2.92 0-4.58 1.24t-1.66 3.24q0 1.32.86 2.22t2.28 1.58 3.22 1.22 3.66 1.18 3.66 1.46 3.22 2.08 2.28 3.02.86 4.24q0 2.96-1.06 5.46t-3.14 4.32-5.14 2.84-7.06 1.02q-2.12 0-4.14-.38t-3.88-1.06-3.44-1.6-2.78-2l2.28-3.76q.44-.68 1.04-1.04t1.52-.36 1.74.52 1.9 1.12 2.54 1.12 3.7.52q1.76 0 3.02-.42t2.08-1.1 1.2-1.58.38-1.86q0-1.44-.86-2.36t-2.28-1.6-3.24-1.22-3.72-1.18-3.72-1.5-3.24-2.18-2.28-3.24-.86-4.64q0-2.52 1-4.8t2.94-3.98 4.84-2.72 6.7-1.02q4.24 0 7.72 1.4t5.8 3.68m-438.36 74.76v57.84h-10.8v-57.84zm21.24 57.84h-9.88v-41.04h6.04q1.92 0 2.52 1.8l.64 3.04q1.08-1.2 2.26-2.2t2.52-1.72 2.88-1.14 3.38-.42q3.88 0 6.38 2.1t3.74 5.58q.96-2.04 2.4-3.5t3.16-2.38 3.66-1.36 3.9-.44q3.4 0 6.04 1.04t4.44 3.04 2.74 4.88.94 6.6v26.12h-9.88V269.9q0-3.92-1.72-5.9t-5.04-1.98q-1.52 0-2.82.52t-2.28 1.5-1.54 2.46-.56 3.4v26.12h-9.92V269.9q0-4.12-1.66-6t-4.86-1.88q-2.16 0-4.02 1.06t-3.46 2.9zm67-29.04v18.4q1.68 2.04 3.66 2.88t4.3.84q2.24 0 4.04-.84t3.06-2.56 1.94-4.34.68-6.18q0-3.6-.58-6.1t-1.66-4.06-2.62-2.28-3.5-.72q-3.08 0-5.24 1.3t-4.08 3.66m-1.32-10.2.8 3.8q2.52-2.84 5.72-4.6t7.52-1.76q3.36 0 6.14 1.4t4.8 4.06 3.12 6.56 1.1 8.94q0 4.6-1.24 8.52t-3.54 6.8-5.56 4.5-7.3 1.62q-3.44 0-5.88-1.06t-4.36-2.94v16.8h-9.88v-54.44h6.04q1.92 0 2.52 1.8m55.04-2.44q4.56 0 8.3 1.48t6.4 4.2 4.1 6.64 1.44 8.76q0 4.88-1.44 8.8t-4.1 6.68-6.4 4.24-8.3 1.48q-4.6 0-8.36-1.48t-6.42-4.24-4.12-6.68-1.46-8.8q0-4.84 1.46-8.76t4.12-6.64 6.42-4.2 8.36-1.48m0 34.68q5.12 0 7.58-3.44t2.46-10.08-2.46-10.12-7.58-3.48q-5.2 0-7.7 3.5t-2.5 10.1 2.5 10.06 7.7 3.46m36.52-31.56.6 4.64q1.92-3.68 4.56-5.78t6.24-2.1q2.84 0 4.56 1.24l-.64 7.4q-.2.72-.58 1.02t-1.02.3q-.6 0-1.78-.2t-2.3-.2q-1.64 0-2.92.48t-2.3 1.38-1.8 2.18-1.46 2.92v25.28h-9.88v-41.04h5.8q1.52 0 2.12.54t.8 1.94m34.8 39.2q-5.36 0-8.22-3.02t-2.86-8.34v-22.92h-4.2q-.8 0-1.36-.52t-.56-1.56v-3.92l6.6-1.08 2.08-11.2q.2-.8.76-1.24t1.44-.44h5.12v12.92h10.96v7.04h-10.96v22.24q0 1.92.94 3t2.58 1.08q.92 0 1.54-.22t1.08-.46.82-.46.72-.22q.44 0 .72.22t.6.66l2.96 4.8q-2.16 1.8-4.96 2.72t-5.8.92m37.76-11.24v-6.92q-4.28.2-7.2.74t-4.68 1.38-2.52 1.96-.76 2.44q0 2.6 1.54 3.72t4.02 1.12q3.04 0 5.26-1.1t4.34-3.34m-20.88-21.56-1.76-3.16q7.08-6.48 17.04-6.48 3.6 0 6.44 1.18t4.8 3.28 2.98 5.02 1.02 6.4v25.92h-4.48q-1.4 0-2.16-.42t-1.2-1.7l-.88-2.96q-1.56 1.4-3.04 2.46t-3.08 1.78-3.42 1.1-4.02.38q-2.6 0-4.8-.7t-3.8-2.1-2.48-3.48-.88-4.84q0-1.56.52-3.1t1.7-2.94 3.06-2.64 4.62-2.16 6.38-1.5 8.32-.7v-2.4q0-4.12-1.76-6.1t-5.08-1.98q-2.4 0-3.98.56t-2.78 1.26-2.18 1.26-2.18.56q-1.04 0-1.76-.54t-1.16-1.26m48.36-7.08.68 3.24q1.24-1.24 2.62-2.3t2.92-1.8 3.3-1.16 3.84-.42q3.36 0 5.96 1.14t4.34 3.2 2.64 4.92.9 6.3v26.12h-9.88V269.9q0-3.76-1.72-5.82t-5.24-2.06q-2.56 0-4.8 1.16t-4.24 3.16v29.68h-9.88v-41.04h6.04q1.92 0 2.52 1.8m50.24 39.88q-5.36 0-8.22-3.02t-2.86-8.34v-22.92h-4.2q-.8 0-1.36-.52t-.56-1.56v-3.92l6.6-1.08 2.08-11.2q.2-.8.76-1.24t1.44-.44H527v12.92h10.96v7.04H527v22.24q0 1.92.94 3t2.58 1.08q.92 0 1.54-.22t1.08-.46.82-.46.72-.22q.44 0 .72.22t.6.66l2.96 4.8q-2.16 1.8-4.96 2.72t-5.8.92m23.88-25.88h18.64q0-1.92-.54-3.62t-1.62-2.98-2.74-2.02-3.86-.74q-4.28 0-6.74 2.44t-3.14 6.92m25.2 5.96h-25.4q.24 3.16 1.12 5.46t2.32 3.8 3.42 2.24 4.38.74 4.14-.56 3.04-1.24 2.28-1.24 1.9-.56q1.24 0 1.84.92l2.84 3.6q-1.64 1.92-3.68 3.22t-4.26 2.08-4.52 1.1-4.46.32q-4.28 0-7.96-1.42t-6.4-4.2-4.28-6.88-1.56-9.5q0-4.2 1.36-7.9t3.9-6.44 6.2-4.34 8.26-1.6q3.88 0 7.16 1.24t5.64 3.62 3.7 5.84 1.34 7.9q0 2.24-.48 3.02t-1.84.78m37-17.32-2.24 3.56q-.4.64-.84.9t-1.12.26q-.72 0-1.54-.4t-1.9-.9-2.46-.9-3.26-.4q-2.92 0-4.58 1.24t-1.66 3.24q0 1.32.86 2.22t2.28 1.58 3.22 1.22 3.66 1.18 3.66 1.46 3.22 2.08 2.28 3.02.86 4.24q0 2.96-1.06 5.46t-3.14 4.32-5.14 2.84-7.06 1.02q-2.12 0-4.14-.38t-3.88-1.06-3.44-1.6-2.78-2l2.28-3.76q.44-.68 1.04-1.04t1.52-.36 1.74.52 1.9 1.12 2.54 1.12 3.7.52q1.76 0 3.02-.42t2.08-1.1 1.2-1.58.38-1.86q0-1.44-.86-2.36t-2.28-1.6-3.24-1.22-3.72-1.18-3.72-1.5-3.24-2.18-2.28-3.24-.86-4.64q0-2.52 1-4.8t2.94-3.98 4.84-2.72 6.7-1.02q4.24 0 7.72 1.4t5.8 3.68"/></svg>