<svg xmlns="http://www.w3.org/2000/svg" width="800" height="450" viewBox="0 0 800 450"><rect width="100%" height="100%" fill="#003366"/><path fill="#FFFFFF" d="M237.475 171.065h9.14q3.37 0 5.87-.85 2.51-.84 4.17-2.41t2.48-3.82q.81-2.25.81-5.03 0-2.64-.81-4.77-.82-2.14-2.46-3.64-1.64-1.51-4.14-2.3-2.5-.8-5.92-.8h-9.14zm-12.24-33.08h21.38q6.6 0 11.42 1.54 4.83 1.55 7.97 4.33 3.14 2.77 4.66 6.64t1.52 8.46q0 4.78-1.59 8.76t-4.78 6.85q-3.18 2.87-7.98 4.46t-11.22 1.59h-9.14v23.16h-12.24zm63.43 37.08h21.2q0-2.18-.62-4.12-.61-1.93-1.84-3.39-1.23-1.45-3.12-2.3-1.88-.84-4.39-.84-4.87 0-7.66 2.78-2.8 2.77-3.57 7.87m28.66 6.78h-28.89q.27 3.59 1.27 6.21t2.64 4.32q1.64 1.71 3.89 2.55t4.98.84 4.71-.63q1.98-.64 3.46-1.42 1.48-.77 2.59-1.41 1.12-.63 2.17-.63 1.41 0 2.09 1.04l3.23 4.1q-1.87 2.18-4.19 3.66t-4.84 2.37q-2.53.88-5.14 1.25-2.62.36-5.08.36-4.87 0-9.05-1.61-4.19-1.62-7.28-4.78-3.1-3.16-4.87-7.83-1.78-4.66-1.78-10.8 0-4.78 1.55-8.99t4.44-7.32q2.89-3.12 7.05-4.94t9.4-1.82q4.41 0 8.14 1.41t6.42 4.12q2.68 2.7 4.2 6.64 1.53 3.94 1.53 8.99 0 2.54-.55 3.43-.54.89-2.09.89m42.09-19.7-2.55 4.05q-.46.73-.96 1.02-.5.3-1.27.3-.82 0-1.75-.46-.93-.45-2.16-1.02t-2.8-1.03q-1.57-.45-3.71-.45-3.32 0-5.21 1.41t-1.89 3.68q0 1.51.98 2.53t2.59 1.8q1.62.77 3.67 1.39 2.04.61 4.16 1.34t4.16 1.66q2.05.93 3.67 2.36 1.61 1.44 2.59 3.44t.98 4.82q0 3.37-1.21 6.21-1.2 2.85-3.57 4.92t-5.85 3.23-8.03 1.16q-2.41 0-4.71-.43-2.29-.44-4.41-1.21t-3.91-1.82q-1.8-1.05-3.17-2.27l2.6-4.28q.5-.78 1.18-1.18.68-.41 1.73-.41t1.98.59 2.16 1.27 2.89 1.28q1.66.59 4.21.59 2 0 3.43-.48 1.44-.48 2.37-1.25.93-.78 1.37-1.8.43-1.02.43-2.12 0-1.63-.98-2.68t-2.59-1.82q-1.62-.77-3.69-1.39-2.07-.61-4.23-1.34t-4.23-1.71q-2.07-.97-3.69-2.48-1.61-1.5-2.59-3.68-.98-2.19-.98-5.28 0-2.87 1.14-5.46 1.13-2.59 3.34-4.53 2.21-1.93 5.51-3.09t7.62-1.16q4.82 0 8.78 1.59t6.6 4.19m38.26 27.8v-20.93q-1.86-2.32-4.14-3.28-2.27-.95-4.87-.95-2.54 0-4.59.95-2.05.96-3.51 2.89-1.45 1.94-2.22 4.92-.78 2.98-.78 7.03 0 4.09.66 6.93.66 2.85 1.89 4.64 1.23 1.8 3 2.6 1.78.79 3.96.79 3.5 0 5.96-1.45 2.46-1.46 4.64-4.14m4.37-32.85h6.87v61.92h-11.24v-21.16q-2.77 2.96-6.28 4.78-3.5 1.82-8.14 1.82-3.82 0-7.01-1.59-3.18-1.59-5.48-4.62-2.3-3.02-3.55-7.48t-1.25-10.19q0-5.19 1.41-9.65t4.05-7.74q2.64-3.27 6.32-5.11 3.69-1.85 8.28-1.85 4.37 0 7.33 1.5 2.96 1.51 5.28 4.05l.59-2.64q.59-2.04 2.82-2.04m46.96 0h11.24v46.68h-6.88q-2.22 0-2.82-2.05l-.77-3.73q-2.87 2.91-6.32 4.71-3.46 1.8-8.15 1.8-3.82 0-6.76-1.3-2.93-1.3-4.93-3.66-2-2.37-3.03-5.62-1.02-3.25-1.02-7.17v-29.66h11.24v29.66q0 4.28 1.98 6.62 1.98 2.35 5.93 2.35 2.92 0 5.46-1.3 2.55-1.3 4.83-3.57zm22.7 0h11.29v46.68h-11.29zm12.83-13.61q0 1.46-.59 2.73-.59 1.28-1.57 2.23-.98.96-2.3 1.53t-2.82.57q-1.45 0-2.75-.57t-2.25-1.53q-.96-.95-1.53-2.23-.57-1.27-.57-2.73 0-1.5.57-2.82t1.53-2.27q.95-.96 2.25-1.53t2.75-.57q1.5 0 2.82.57t2.3 1.53q.98.95 1.57 2.27t.59 2.82m40.95 18.66-2.55 4.05q-.45.73-.95 1.02-.5.3-1.27.3-.82 0-1.76-.46-.93-.45-2.16-1.02t-2.8-1.03q-1.57-.45-3.7-.45-3.33 0-5.21 1.41-1.89 1.41-1.89 3.68 0 1.51.98 2.53.97 1.02 2.59 1.8 1.61.77 3.66 1.39 2.05.61 4.17 1.34 2.11.73 4.16 1.66t3.66 2.36q1.62 1.44 2.59 3.44.98 2 .98 4.82 0 3.37-1.2 6.21-1.21 2.85-3.57 4.92-2.37 2.07-5.85 3.23t-8.03 1.16q-2.41 0-4.71-.43-2.3-.44-4.41-1.21-2.12-.77-3.92-1.82t-3.16-2.27l2.59-4.28q.5-.78 1.19-1.18.68-.41 1.73-.41 1.04 0 1.97.59.94.59 2.17 1.27 1.22.68 2.89 1.28 1.66.59 4.2.59 2.01 0 3.44-.48t2.37-1.25q.93-.78 1.36-1.8t.43-2.12q0-1.63-.98-2.68-.97-1.05-2.59-1.82-1.61-.77-3.68-1.39-2.07-.61-4.24-1.34-2.16-.73-4.23-1.71-2.07-.97-3.68-2.48-1.62-1.5-2.6-3.68-.98-2.19-.98-5.28 0-2.87 1.14-5.46t3.35-4.53q2.2-1.93 5.5-3.09t7.62-1.16q4.83 0 8.78 1.59 3.96 1.59 6.6 4.19m33.63 29.57v-7.87q-4.87.23-8.19.84-3.32.62-5.33 1.57-2 .96-2.86 2.23-.87 1.28-.87 2.78 0 2.96 1.75 4.23 1.76 1.27 4.58 1.27 3.46 0 5.98-1.25 2.53-1.25 4.94-3.8m-23.75-24.52-2.01-3.6q8.06-7.37 19.39-7.37 4.09 0 7.32 1.34 3.23 1.35 5.46 3.74 2.23 2.38 3.39 5.71 1.16 3.32 1.16 7.28v29.48h-5.09q-1.6 0-2.46-.48-.87-.48-1.37-1.93l-1-3.37q-1.77 1.59-3.45 2.8-1.69 1.21-3.51 2.02-1.82.82-3.89 1.26-2.07.43-4.57.43-2.96 0-5.46-.8-2.5-.79-4.32-2.39-1.82-1.59-2.82-3.96-1.01-2.36-1.01-5.5 0-1.78.6-3.53.59-1.75 1.93-3.34t3.48-3 5.26-2.46q3.11-1.05 7.25-1.71t9.47-.79v-2.73q0-4.69-2-6.94-2.01-2.25-5.78-2.25-2.73 0-4.53.63-1.8.64-3.16 1.44l-2.48 1.43q-1.12.64-2.48.64-1.19 0-2-.62-.82-.61-1.32-1.43m-360.25 111.29h7.64q3.46 0 6.03-.86 2.57-.87 4.23-2.39 1.66-1.53 2.48-3.62t.82-4.59q0-5.01-3.3-7.69-3.29-2.69-10.07-2.69h-7.83zm22.66 10.19 16.47 24.3h-11.06q-3.14 0-4.55-2.46l-13.83-21.06q-.77-1.19-1.7-1.69-.94-.5-2.76-.5h-5.23v25.71h-12.24v-65.79h20.07q6.68 0 11.48 1.38 4.8 1.39 7.88 3.9 3.07 2.5 4.52 5.98 1.46 3.48 1.46 7.67 0 3.32-.98 6.27-.98 2.96-2.82 5.37t-4.55 4.23-6.17 2.87q1.19.68 2.19 1.62 1 .93 1.82 2.2m30.71-4.41h21.2q0-2.18-.61-4.12-.61-1.93-1.84-3.39-1.23-1.45-3.12-2.3-1.89-.84-4.39-.84-4.87 0-7.67 2.78-2.8 2.77-3.57 7.87m28.67 6.78h-28.9q.28 3.59 1.28 6.21t2.64 4.32q1.63 1.71 3.89 2.55 2.25.84 4.98.84t4.71-.63q1.98-.64 3.46-1.42 1.48-.77 2.59-1.41 1.11-.63 2.16-.63 1.41 0 2.09 1.04l3.23 4.1q-1.86 2.18-4.18 3.66t-4.85 2.37q-2.52.88-5.14 1.25-2.61.36-5.07.36-4.87 0-9.06-1.61-4.18-1.62-7.28-4.78-3.09-3.16-4.86-7.83-1.78-4.66-1.78-10.8 0-4.78 1.55-8.99 1.54-4.21 4.43-7.32 2.89-3.12 7.06-4.94 4.16-1.82 9.39-1.82 4.42 0 8.15 1.41t6.41 4.12q2.69 2.7 4.21 6.64 1.53 3.94 1.53 8.99 0 2.54-.55 3.43t-2.09.89m40.35 8.1v-20.93q-1.91-2.32-4.16-3.28-2.25-.95-4.84-.95-2.55 0-4.6.95-2.05.96-3.5 2.89-1.46 1.94-2.23 4.92-.78 2.98-.78 7.03 0 4.09.66 6.93.66 2.85 1.89 4.64 1.23 1.8 3 2.6 1.78.79 3.96.79 3.51 0 5.96-1.45 2.46-1.46 4.64-4.14m0-53.78h11.24v67.61h-6.87q-2.23 0-2.82-2.05l-.95-4.5q-2.82 3.23-6.49 5.23-3.66 2-8.53 2-3.82 0-7.01-1.59-3.18-1.59-5.48-4.62-2.3-3.02-3.55-7.48t-1.25-10.19q0-5.19 1.41-9.65t4.05-7.74q2.64-3.27 6.33-5.11 3.68-1.85 8.28-1.85 3.91 0 6.69 1.23 2.77 1.23 4.95 3.32zm31.22 38.9h21.2q0-2.18-.61-4.12-.62-1.93-1.85-3.39-1.22-1.45-3.11-2.3-1.89-.84-4.39-.84-4.87 0-7.67 2.78-2.8 2.77-3.57 7.87m28.66 6.78h-28.89q.27 3.59 1.27 6.21 1.01 2.62 2.64 4.32 1.64 1.71 3.89 2.55 2.26.84 4.99.84t4.71-.63q1.97-.64 3.45-1.42 1.48-.77 2.6-1.41 1.11-.63 2.16-.63 1.41 0 2.09 1.04l3.23 4.1q-1.86 2.18-4.18 3.66-2.33 1.48-4.85 2.37-2.53.88-5.14 1.25-2.62.36-5.08.36-4.86 0-9.05-1.61-4.19-1.62-7.28-4.78t-4.87-7.83q-1.77-4.66-1.77-10.8 0-4.78 1.54-8.99 1.55-4.21 4.44-7.32 2.89-3.12 7.05-4.94 4.17-1.82 9.4-1.82 4.41 0 8.14 1.41t6.42 4.12q2.68 2.7 4.21 6.64 1.52 3.94 1.52 8.99 0 2.54-.54 3.43-.55.89-2.1.89m73.03-37.67-3.05 5.77q-.54.96-1.16 1.39-.61.43-1.52.43-.96 0-2.07-.7-1.12-.71-2.66-1.57-1.55-.87-3.62-1.57-2.07-.71-4.89-.71-2.55 0-4.46.62-1.91.61-3.21 1.7-1.3 1.1-1.93 2.62-.64 1.52-.64 3.34 0 2.33 1.3 3.87 1.29 1.55 3.43 2.64t4.87 1.96q2.73.86 5.6 1.84 2.86.98 5.59 2.28 2.73 1.29 4.87 3.27t3.44 4.85q1.29 2.86 1.29 6.96 0 4.46-1.52 8.35-1.53 3.89-4.46 6.78t-7.17 4.55q-4.23 1.66-9.69 1.66-3.14 0-6.19-.62-3.04-.61-5.84-1.75t-5.26-2.73q-2.45-1.59-4.37-3.55l3.6-5.87q.45-.63 1.18-1.07.73-.43 1.55-.43 1.14 0 2.46.93 1.32.94 3.14 2.08 1.82 1.13 4.25 2.07 2.43.93 5.85.93 5.23 0 8.1-2.48 2.86-2.48 2.86-7.12 0-2.6-1.29-4.23-1.3-1.64-3.44-2.76-2.14-1.11-4.87-1.88-2.73-.78-5.55-1.69t-5.55-2.18q-2.73-1.28-4.87-3.32-2.14-2.05-3.43-5.12-1.3-3.07-1.3-7.58 0-3.59 1.43-7.01 1.44-3.41 4.17-6.05t6.73-4.23 9.19-1.59q5.82 0 10.74 1.82 4.91 1.82 8.37 5.1m34.72 47.54v-7.87q-4.87.23-8.19.84-3.32.62-5.33 1.57-2 .96-2.86 2.23-.87 1.28-.87 2.78 0 2.96 1.75 4.23 1.76 1.27 4.58 1.27 3.45 0 5.98-1.25t4.94-3.8m-23.75-24.52-2.01-3.6q8.06-7.37 19.39-7.37 4.09 0 7.32 1.34 3.23 1.35 5.46 3.74 2.23 2.38 3.39 5.71 1.16 3.32 1.16 7.28v29.48h-5.09q-1.6 0-2.46-.48-.87-.48-1.37-1.93l-1-3.37q-1.77 1.59-3.45 2.8-1.69 1.21-3.51 2.02-1.82.82-3.89 1.26-2.07.43-4.57.43-2.96 0-5.46-.8-2.5-.79-4.32-2.39-1.82-1.59-2.82-3.96-1.01-2.36-1.01-5.5 0-1.78.6-3.53.59-1.75 1.93-3.34t3.48-3 5.26-2.46q3.11-1.05 7.25-1.71t9.47-.79v-2.73q0-4.69-2.01-6.94-2-2.25-5.77-2.25-2.73 0-4.53.63-1.8.64-3.16 1.44l-2.48 1.43q-1.12.64-2.48.64-1.19 0-2-.62-.82-.61-1.32-1.43m56.51 36.58h-11.24v-46.68h6.87q2.18 0 2.87 2.04l.72 3.46q1.23-1.36 2.57-2.5 1.35-1.14 2.87-1.96t3.28-1.29q1.75-.48 3.84-.48 4.41 0 7.26 2.39 2.84 2.39 4.25 6.35 1.09-2.33 2.73-3.99t3.6-2.7q1.95-1.05 4.16-1.55t4.44-.5q3.86 0 6.87 1.18 3 1.19 5.05 3.46 2.05 2.28 3.11 5.55 1.07 3.28 1.07 7.51v29.71h-11.23v-29.71q0-4.46-1.96-6.71t-5.73-2.25q-1.73 0-3.21.59t-2.6 1.7q-1.11 1.12-1.75 2.8-.63 1.68-.63 3.87v29.71h-11.29v-29.71q0-4.69-1.89-6.83-1.88-2.13-5.52-2.13-2.46 0-4.58 1.2-2.11 1.21-3.93 3.3zm89.63-12.06v-7.87q-4.87.23-8.19.84-3.32.62-5.32 1.57-2 .96-2.87 2.23-.86 1.28-.86 2.78 0 2.96 1.75 4.23t4.57 1.27q3.46 0 5.98-1.25 2.53-1.25 4.94-3.8m-23.75-24.52-2-3.6q8.05-7.37 19.38-7.37 4.1 0 7.33 1.34 3.23 1.35 5.46 3.74 2.23 2.38 3.39 5.71 1.16 3.32 1.16 7.28v29.48h-5.1q-1.59 0-2.46-.48-.86-.48-1.36-1.93l-1-3.37q-1.78 1.59-3.46 2.8t-3.5 2.02q-1.82.82-3.89 1.26-2.07.43-4.58.43-2.95 0-5.46-.8-2.5-.79-4.32-2.39-1.82-1.59-2.82-3.96-1-2.36-1-5.5 0-1.78.59-3.53t1.93-3.34q1.35-1.59 3.49-3 2.13-1.41 5.25-2.46t7.26-1.71 9.46-.79v-2.73q0-4.69-2-6.94t-5.78-2.25q-2.73 0-4.53.63-1.79.64-3.16 1.44-1.36.79-2.48 1.43-1.11.64-2.48.64-1.18 0-2-.62-.82-.61-1.32-1.43m55.19-7.28.68 5.28q2.19-4.19 5.19-6.58t7.1-2.39q3.23 0 5.19 1.41l-.73 8.42q-.23.82-.66 1.16t-1.16.34q-.68 0-2.03-.23-1.34-.22-2.61-.22-1.87 0-3.32.54-1.46.55-2.62 1.57-1.16 1.03-2.05 2.48-.88 1.46-1.66 3.32v28.76h-11.24v-46.68h6.6q1.73 0 2.41.61.68.62.91 2.21"/></svg>